<?xml version="1.0" encoding="utf-8"?>
<!-- Generator: Adobe Illustrator 27.8.1, SVG Export Plug-In . SVG Version: 6.00 Build 0)  -->
<svg version="1.1" id="Layer_1" xmlns="http://www.w3.org/2000/svg" xmlns:xlink="http://www.w3.org/1999/xlink" x="0px" y="0px"
	 viewBox="0 0 1921.3 42.2" style="enable-background:new 0 0 1921.3 42.2;" xml:space="preserve">
<g>
	<path d="M0-0.4v14.3h211.4c11.9,0.5,22.1,0.9,23.2,0.9c3.5,0,5.6,0.1,13.2,0.3c12.5,0.3,24.4,0.2,29.1-0.2c2.3-0.2,6.5-0.3,9.1-0.3
		c2.8,0,5.9-0.2,7.2-0.3c2.3-0.3,3.2-0.3,3.8,0.2c0.2,0.2,3.8,0.2,12.6,0.3c6.9,0,13,0,13.7-0.1c0.8-0.1,3.7-0.1,6.6,0
		c4.5,0.1,5.1,0.1,3.8-0.3c-1.3-0.3-0.6-0.3,4.8-0.3c3.6,0,5.3,0,6-0.1h132.2c2.7,0.3,4.4,0.6,4.4,0.6c0,0.1,1.1,0.2,2.6,0.2
		c1.3,0,2.6,0.1,2.6,0.2s2.3,0.4,5.1,0.8c2.9,0.3,5.2,0.7,5.3,0.8c0.1,0.1,1.9,0.3,3.9,0.5s3.8,0.3,3.8,0.5c0,0.3,17.6,1.8,24.3,2
		c5.3,0.3,21.1,0.4,36.8,0.4c3.2,0,5.9,0.1,5.9,0.1s3.6,0.1,7.7,0.1c4.2,0,7.7,0,7.7-0.1s2.9-0.1,6.9,0c4.7,0.1,6.3,0.1,5.2-0.1
		c-2.7-0.3,2.4-0.3,5.9-0.1c3.7,0.3,17.1,0.3,18.5,0.1c0.7-0.1,3.9-0.1,11.8,0c7.6,0.1,12.3,0.1,15.8,0c3.7-0.1,5.4-0.1,6.5,0
		c1.2,0.2,1.8,0.2,3.1,0c1.2-0.2,2.5-0.2,5.1,0c2.9,0.2,3.6,0.1,3.6-0.1s0.7-0.3,3.8-0.1c2.2,0.1,3.8,0.1,3.8,0s3.4-0.2,7.6-0.3
		c4.2-0.1,9-0.2,10.7-0.3c1.7-0.1,5.1-0.2,7.6-0.2s5.2-0.1,6-0.2c1-0.2,3.4-0.2,7.4-0.1c7.5,0.1,9.7,0.3,17.5,1.1
		c6.8,0.8,15.2,1.5,22.1,2c2.3,0.2,6.5,0.5,9.6,0.8c10.4,1,11.8,1.2,16.4,1.5c2.6,0.2,9.1,0.6,14.3,0.9c9.3,0.6,10,0.6,25.7,0.6
		c11.3,0,17.1,0.1,19.4,0.3c2.8,0.2,3.5,0.2,5.6,0c2.2-0.2,2.6-0.2,4.1,0c1.9,0.3,25.7,0.3,28.6,0.1c1.2-0.1,2.3-0.1,3.9,0
		c1.9,0.2,2.6,0.2,4.8,0s2.9-0.2,4.8,0c2.5,0.3,18.4,0.1,18.4-0.2c0-0.1,2.5-0.2,5.4-0.3c4.9-0.2,5.1-0.2,2.3,0.2
		c-4.1,0.4-1.6,0.5,7.7,0.3c4.7-0.1,7.6-0.1,7.6,0s2.2,0.1,5.1,0.1c3.2-0.1,5.1,0,5.1,0.1s1.2,0.1,2.9,0.1
		c2.8-0.1,10.5-0.2,23.5-0.3c3,0,4.5-0.2,4.7-0.4c0.1-0.3,0.8-0.3,1.6-0.3c1,0.2,2.3,0.2,4.8,0c2.4-0.1,3.9-0.1,5,0
		c0.9,0.1,2.8,0.2,4.5,0.2c1.5,0,0.7-0.1-1.7-0.2c-5.4-0.3-3.2-0.6,2.7-0.4c1.9,0,5.2,0,7.4-0.2c3.5-0.2,3.9-0.2,3.9,0.1
		c0,0.2,1.1,0.3,2.6,0.4c1.4,0.1,2.6,0,2.6-0.2c0-0.2,1.5-0.2,3.4-0.2s4.9,0,6.7-0.2c2.3-0.2,2.4-0.3,0.4-0.3
		c-1.7,0-2.9-0.1-2.9-0.3c0-0.3,9.5-0.6,14-0.4c1.4,0.1,1.7,0,0.7-0.2s-0.7-0.2,0.6-0.2c1.2,0.1,3,0,3.7-0.1c0.8-0.1,1.4-0.1,1.5,0
		s3.1,0.2,7.2,0.1l7.1-0.1l-6.4-0.1c-6.6-0.1-10.9-0.7-4.9-0.7c1.9,0,2.4-0.2,1.3-0.3c-1-0.3-0.5-0.3,1.1-0.3c2.8,0,1.9-0.8-1.4-1.3
		c-1.3-0.2-1.1-0.3,0.7-0.1c2,0.2,2.7,0.2,3.7-0.1c1.5-0.3-3.7-0.9-6.4-0.8c-0.9,0.1-2.5,0-3.6-0.2c-1-0.2-4.5-0.4-8-0.5l-6.1-0.3
		l5.1-0.3c7-0.3,8.1-0.3,8.1,0.1c0,0.3,1.5,0.3,4.5,0.3c2.5,0,4.5,0.1,4.5,0.2c0,0.3,11.2,0.9,14.5,0.8c1.6-0.1,1.4,0.1-0.4,0.3
		c-2.6,0.3-2.4,0.3,1,0.4c2.2,0.1,4,0.3,4,0.4c0,0.2,1,0.3,2.2,0.3s3.8,0.3,5.6,0.5c1.9,0.3,4.4,0.5,5.5,0.5s2.1,0.1,2.1,0.2
		c0,0.3,14.6,0.7,16.4,0.5c0.8-0.1,1.4-0.1,1.5,0.1c0.3,0.3,7.1,0.4,9.3,0.3c0.8-0.1,4.5-0.1,8.5-0.1c3.9,0.1,10,0.1,14,0.1
		c3.9,0,7,0.1,7,0.2c0,0.3,12.3,0.1,21.6-0.3c8.1-0.3,10.5-0.3,12.3-0.2c1.3,0.1,2.2,0.3,2.3,0.3c0.1,0.3,5.6,0.1,7.7-0.3
		c1.9-0.3,2.3-0.3,2.4-0.1s1.4,0.3,4,0.2c2.2-0.1,3.9,0,3.9,0.1s1.1,0.2,2.6,0.2c1.4,0,2.6-0.1,2.6-0.3s1.2-0.2,2.6-0.2
		c1.4,0.1,2.6,0,2.6-0.1c0-0.1,1.2-0.2,2.6-0.2c1.5,0,2.6,0.1,2.6,0.2c0,0.1-2.1,0.3-4.5,0.3c-3.2,0-3.6,0-1.2,0.1
		c1.8,0.1,6.7,0.1,10.9,0.1c6.6-0.1,7.5-0.1,6.7-0.5c-0.8-0.4-0.6-0.4,3.4-0.2c2.5,0.2,5.2,0.2,6.4,0.1c1.2-0.1,1.7,0,1.1,0.3
		c-0.5,0.2,0.4,0.3,2.2,0.4c2.2,0,3.2-0.1,3.2-0.4c0-0.4,0.8-0.5,3.9-0.4c2.7,0.1,3.9,0,3.9-0.3c0-0.2-1-0.3-2.2-0.3
		c-3.2,0.1-5.9-0.5-2.9-0.7c1.5-0.1,2.5,0,2.5,0.2s1.2,0.3,3.3,0.3c2.3-0.1,3.4,0.1,3.7,0.6c0.5,0.8,1.1,0.8,6.9,0.7
		c3.4-0.1,3.7-0.2,1.3-0.3c-1.6-0.1-2.3-0.2-1.3-0.2c0.9,0,0.6-0.1-0.9-0.3c-2.2-0.3-1.7-0.3,3.2-0.3c3.4,0,7.6,0.1,10.4,0.3
		c2.7,0.2,4,0.2,3,0.1c-1.8-0.2,7.7-0.5,11.4-0.4c1.2,0,2.9,0,3.7-0.2c1.2-0.2,2-0.2,5,0c2.1,0.1,4.2,0.3,5,0.4
		c1.2,0.2,1.5,0.2,1.6,0c0.1-0.2-1-0.3-2.5-0.3c-1.4-0.1-2.6-0.2-2.6-0.3c0-0.2,0.7-0.2,4,0.1c3.9,0.3,3.9,0.3,1.3,0
		c-1.5-0.2-2.1-0.4-1.2-0.5s0.3-0.3-1.2-0.3c-1.6-0.1-2.1-0.2-1.2-0.3c0.9-0.1,0.1-0.2-1.7-0.2c-1.7,0-2.4-0.1-1.5-0.1
		c1-0.1,0-0.2-2.2-0.3c-3.5-0.3-3.5-0.3,0-0.5c3.1-0.3,3.6-0.3,2.4,0c-1.5,0.3,4.6,0.8,7.2,0.6c0.7,0,2,0,2.8,0.2
		c1,0.2,0.6,0.2-1,0.2c-1.5-0.1-2.6,0-2.6,0.1s1.3,0.2,2.8,0.3c1.6,0.1,2.2,0.2,1.5,0.3c-0.9,0.2-0.1,0.2,2.3,0.1
		c4.7-0.1,5-0.3,0.5-0.3c-1.9,0-1.5-0.1,1.2-0.2c5.9-0.3,5.9-0.5,0-0.6c-3.7-0.1-4.4-0.2-3.6-0.6c0.6-0.3,2.2-0.6,3.7-0.7
		c1.5-0.1,1.1-0.3-1.2-0.4c-3.9-0.3-2.5-1.2,2-1.2c1.3,0,2.1-0.1,1.6-0.2c-0.6-0.2,0.5-0.2,3.4-0.1c2.4,0.1,6.5,0.1,9.2,0.1
		c3.9,0,4.6,0.1,3.3,0.3c-0.9,0.2-0.4,0.3,1.1,0.3s3.2,0.1,3.8,0.2c0.6,0.1,0.7,0.1,0.2-0.1c-0.5-0.2-0.9-0.5-1-0.8
		c-0.1-0.4-0.7-0.4-3.8-0.3c-5.9,0.3-9.1,0.1-9.1-0.7c0-0.5,0.7-0.6,3.2-0.5c1.8,0.1,5.4,0.1,8.3,0c9.3-0.2,16.7-0.2,16.8,0.1
		c0.1,0.3,0.5,0.3,2.4,0.1c3.5-0.3,6.2-0.1,5.7,0.5c-0.5,0.7,4.9,0.6,8-0.1c4-0.9,4.2-0.9,10.2-0.6c3.9,0.2,5.7,0.3,6.5,0.1
		c2.1-0.3,5.9-0.2,4.7,0.2c-0.6,0.2-0.1,0.3,1.2,0.3c1.3,0,2.3-0.1,2.4-0.2c0-0.2,8.9,0.5,10.2,0.8c1.3,0.3,9,0.9,11.1,0.9
		c1.2,0,1.5,0.2,0.6,0.3c-0.9,0.2,1.1,0.6,4.8,1c3.6,0.4,7,0.8,7.8,1s3,0.3,4.7,0.3c7.6-0.1,8.7,0,7.7,0.6c-0.8,0.4,0,0.7,3.7,0.8
		c3.4,0.2,3.9,0.3,1.6,0.3c-2.4,0.1-2.2,0.2,0.9,0.5c2.3,0.3,5.5,0.4,7.5,0.3c2.3-0.1,3,0,2.2,0.2c-1.5,0.3,8.4,0.5,13.2,0.3
		c2.6-0.2,2.5-0.2-1-0.3c-3.7-0.2-3.6-0.2,1.1-0.1c2.9,0.1,10.8,0.2,17.4,0.1c6.6,0,11-0.1,9.7-0.1c-3.2-0.1-3.6-0.4-0.5-0.4
		c3.4,0,8.2,0.3,6.1,0.5c-0.9,0.1,1.2,0,4.7,0c3.4-0.1,6.8-0.3,7.2-0.4c0.5-0.2,2.4-0.3,4.4-0.4c1.9-0.1,3.6-0.2,3.6-0.3
		c0-0.3,3.2-0.3,7.8,0c2.8,0.2,3.2,0.2,2.1-0.1c-0.7-0.1,1.2-0.3,4.4-0.4c5.4-0.3,5.8-0.3,6.9,0c1.1,0.3-3.8,0.7-6.1,0.5
		c-0.7,0-1.1,0.1-0.9,0.3c0.2,0.2,3.2,0.4,6.6,0.5c5.4,0.2,5.6,0.2,1.8,0c-4-0.2-4.1-0.3-0.5-0.5c2.2-0.2,4.1-0.4,4.3-0.6
		c0.3-0.3,0.7-0.3,3.4-0.1c1.7,0.2,5.1,0.3,7.8,0.3c3.4,0,4.6,0.2,4.3,0.4c-0.4,0.3-0.1,0.3,3.3,0.2c2.1-0.1,3.1-0.3,2.2-0.3
		s-0.5-0.2,0.9-0.2c3.3,0,10.8,0.5,10.8,0.7c0,0.2,7.4,0.6,11.3,0.6c1.2,0,1-0.1-0.4-0.2c-1.5-0.1-2.7-0.3-2.8-0.4
		c-0.1-0.1-0.6-0.4-1.1-0.7c-0.5-0.3,0.1-0.5,1.2-0.5s2.1,0.2,2.1,0.4c0,0.3,2.3,0.6,7.5,0.8c4.2,0.3,8.1,0.3,8.9,0.3
		c0.8-0.1,1.6,0,1.7,0.1s1.4,0,2.7-0.2c1.7-0.3,1.5-0.3-0.7-0.4c-2.3-0.1-2-0.2,1.2-0.2c2.5-0.1,4.4-0.2,4.4-0.3
		c0-0.1-1.7-0.1-3.9,0c-2.8,0.1-3.5,0-2.3-0.2c2-0.3,5.3-0.3,8.2,0c2.1,0.2,2.9,0.2,6.4,0c2.9-0.2,4.4-0.2,5.4-0.1
		c2.6,0.3,9.1-0.3,7.5-0.8c-1.1-0.3-0.1-0.5,4.4-0.7c3.2-0.2,6.2-0.3,6.6-0.3s0.4,0.3-0.1,0.8l-0.9,0.8l5-0.6
		c3.6-0.4,4.4-0.7,2.7-0.9c-1.8-0.3-1-0.3,3.4-0.5c3.9-0.2,6.6-0.2,8.3-0.1c1.8,0.1,3.1,0.1,4.4-0.2c1-0.2,1.2-0.3,0.4-0.4
		c-0.8-0.1,0.7-0.2,3.7-0.3c2.9-0.1,4.4-0.3,3.4-0.3s-0.5-0.1,1.2-0.1c1.8,0.1,2.9,0,2.9-0.1s-1.2-0.3-2.6-0.3
		c-1.5,0-2.6-0.1-2.6-0.2s1.2-0.1,3.9,0c4.9,0.3,4.9,0.8,0,0.9c-2.2,0.1-3,0.2-2.1,0.3c2.5,0.4,10.9,0.6,10.9,0.3
		c0-0.1-1.6-0.2-3.8-0.2c-2.2,0-3.8-0.1-3.8-0.2c0-0.2,13,0.1,16.1,0.3c1.4,0.1,1.8,0.1,1-0.2c-0.9-0.3-0.2-0.3,2.5-0.3
		c2.9,0.1,3.2,0,1.1-0.2c-4.2-0.4-3.5-0.7,1.4-0.4c2.2,0.1,3.3,0.3,2.6,0.3c-0.8,0.1,0.2,0.3,2.5,0.4c3.3,0.2,3.2,0.3-0.7,0.3
		c-3.9,0.2-3.7,0.2,1.2,0.1c4.2-0.1,5.8,0,5.8,0.2c0,0.2,1.6,0.2,4.5,0.2c3.4-0.1,3.7,0,1.1,0.1c-2.8,0.1-2.8,0.2,0,0.4
		c1.9,0.2,4.9,0.3,6.6,0.3s3.2,0.1,3.2,0.2c0,0.1,2.1,0.3,4.5,0.4c2.9,0.2,4.6,0.5,4.8,0.9c0.1,0.4,1.6,0.8,3.3,0.8
		c2.2,0.1,3.1,0.1,3.1,0s1.8,0,3.9,0.3c2.5,0.3,3,0.4,1.2,0.5c-3.2,0.1-3.4,0.4-0.2,0.4c1.2,0,2.8,0.2,3.6,0.3c1.1,0.3,2,0.3,5,0.2
		c5.1-0.3,6.7,0,5.7,0.8c-0.8,0.6-0.7,0.6,1.9,0.2c1.5-0.3,4.2-0.4,6.1-0.4c4.2,0,4.6,0.3,0.7,0.3c-1.5,0.1-2.1,0.2-1.2,0.3
		c0.8,0.1,0.2,0.3-1.3,0.4c-1.9,0.2-2,0.3-0.2,0.6c1.6,0.3,2.7,0.3,2.8,0.2c0.1-0.2,1.4-0.3,2.7-0.3c3.3,0,3.3,0.1-0.2,0.4
		c-2,0.3-2,0.3,0,0.2c1.5-0.1,6.1,0.1,9.9,0.3c6.1,0.3,9.2,0.4,21.2,0.4c11.3,0,14.3-0.1,15-0.3c0.5-0.2-0.7-0.3-3.1-0.3
		c-4.4,0-8.1-0.3-5.6-0.4c0.9-0.1,2.8,0,4,0.1c1.8,0.2,2.7,0.1,4-0.2c1-0.3,1.1-0.5,0.4-0.7c-0.8-0.2-0.4-0.3,0.9-0.3
		c1.2,0,1.6-0.1,0.9-0.2s-0.1-0.3,1.3-0.3c1.5-0.1,2.1-0.2,1.4-0.3c-0.8-0.1,0.4-0.4,2.7-0.8c2.3-0.3,3.4-0.7,2.6-0.8
		c-1.1-0.2-0.4-0.3,2.5-0.2c5.1,0.1,5.1,0.8,0,1.1c-2.5,0.2-3.5,0.3-2.3,0.5c1.5,0.2,2.1,0.2,3.3,0c2.3-0.3,6.5-0.4,10-0.2
		c2.8,0.2,3.1,0.2,1.9-0.2c-0.7-0.3-2.5-0.5-3.9-0.6c-1.6-0.1-1.5-0.2,0.4-0.3c4.3-0.2,6.8,0.1,8.5,0.8c0.8,0.3,2.2,0.7,3,0.8
		c2.2,0.2-2.2,0.2-5.9,0c-2.6-0.2-3.2-0.1-3.2,0.2c0,0.2,1.3,0.3,3.8,0.3c2.5-0.1,4.4,0.1,5.5,0.3c1.1,0.3,3,0.3,5.4,0.3
		c2-0.1,4.8-0.1,6.1-0.1c1.3,0,1.8-0.2,1-0.3s-0.3-0.5,1.1-0.7c1.7-0.3,1.7-0.4,0.1-0.4c-1.3-0.1-2.4,0-2.4,0.1s-1.1,0.1-2.2,0.1
		c-3.1-0.1-0.2-0.9,3.2-0.9c1.9,0,1.7-0.1-0.5-0.2c-2.5-0.2-1.7-0.3,3.4-0.4c6.4-0.3,6.5-0.3,2.3-0.8c-4.6-0.5-3.4-0.8,1.4-0.3
		c1.6,0.2,3.9,0.3,5.1,0.3c1.3-0.1,2.8,0,3.7,0.2c0.9,0.1,0.3,0.2-1.3,0.2c-1.5,0-2.1,0.1-1.2,0.3c1,0.2,0.1,0.3-2.3,0.3
		c-3.5,0.1-3.4,0.1,0.1,0.3c2.3,0.2,6.4,0.4,9.4,0.6c3.3,0.3,4.8,0.3,3.8,0.1c-1.8-0.3,3.2-0.5,6-0.3c1.1,0.1,1.6,0.3,1.1,0.6
		s0.5,0.4,2.7,0.5c2.7,0.1,3.4,0,3.1-0.4c-0.3-0.3-1.4-0.5-2.6-0.5s-1.7-0.1-1.1-0.2c0.5-0.1-1.4-0.3-4.2-0.5
		c-3.9-0.3-5.7-0.3-7.2-0.2c-1.4,0.1-2.1,0.1-2.1-0.1c0-0.4,2.5-0.5,9.8-0.3c6.1,0.3,6.3,0.3,4.4-0.1c-1.3-0.3-1-0.3,0.7-0.3
		c5.4,0.2,6.1-0.3,0.7-0.4c-6.4-0.3-7.2-0.7-1.5-0.8c5.6-0.1,6.8-0.1,4.9,0.1c-0.9,0.1-0.4,0.2,1.1,0.2c1.4,0,3.1-0.1,3.8-0.2
		c1-0.2,1.3-0.2,1.5,0c0.1,0.1,1.5,0.2,3.1,0.1c1.7-0.1,2.4,0,1.8,0.2s-2.7,0.3-5.9,0.3c-4.2,0-4.4,0-1.7,0.2
		c2.5,0.2,2.5,0.3-0.1,0.5c-2.8,0.3-2.8,0.3,0.1,0.4c2,0.1,2.4,0.2,1,0.2c-1.4,0.1-1.9,0.3-1.2,0.4c0.9,0.3,2.1,0.3,4.3,0.3
		c1.7-0.1,4.1-0.1,5.5,0c1.3,0.1,6,0.2,10.2,0.2V0.9H0V-0.4z"/>
	<path d="M1023.2,24.3c1,0.1,3.6,0.2,5.8,0.3c2.6,0.1,2,0.1-2,0.1c-3.9,0-5.8-0.1-5.8-0.3C1021.3,24.2,1022.1,24.1,1023.2,24.3z"/>
	<path d="M1888.4,20.3c-1.5,0.1-2.7,0-2.7-0.2s0.6-0.3,1.2-0.3C1889.6,19.9,1890.8,20.2,1888.4,20.3z"/>
	<path d="M1876.5,17.2c0.7,0.1,0.5,0.2-0.9,0.3c-1.5,0.1-2.7,0-2.7-0.2c0-0.1,0.1-0.1,0.2-0.1C1873.1,17.2,1876.5,17.2,1876.5,17.2z
		"/>
	<path d="M1860.2,19.9c-1.5,0-2.7-0.1-2.7-0.2s0.5-0.2,1.1-0.2s1.8,0.1,2.7,0.2C1862.2,19.8,1861.7,19.9,1860.2,19.9z"/>
	<path d="M1785.5,27.5c0,0.1-1.7,0.2-3.9,0.1c-4.2-0.1-5.2-0.7-1.5-0.8C1782.5,26.7,1785.5,27,1785.5,27.5z"/>
	<path d="M1762.3,26.7c-1.9,0.2-2.5,0.1-2.5-0.3c0-0.3,1.1-0.5,2.5-0.5C1765.4,25.8,1765.4,26.4,1762.3,26.7z"/>
	<path d="M1484.3,19.9c0,0.1-1.2,0.1-2.6,0.1c-1.5-0.1-2.6-0.1-2.6-0.2c0,0,1.1-0.1,2.6-0.1C1483.1,19.8,1484.3,19.8,1484.3,19.9z"
		/>
	<path d="M1272.7,19.5c-0.8-0.1-0.4-0.3,0.9-0.3c3.3,0,6,0.8,4,1.1c-1.6,0.3-2,0.3-5.4,0c-2.7-0.2-2.9-0.4-0.7-0.5
		C1272.9,19.9,1273.5,19.7,1272.7,19.5z"/>
	<path d="M1278.6,23.7c1.4-0.1,2.6,0,2.6,0.1s-1.2,0.2-2.6,0.2c-1.5,0-2.6,0-2.6-0.1C1276,23.9,1277.1,23.8,1278.6,23.7z"/>
	<path d="M516.2,22c-0.8,0.1-1.4,0.1-1.6-0.1c-0.1-0.2,0.5-0.3,1.3-0.2C516.7,21.7,516.9,21.9,516.2,22z"/>
	<path d="M681.6,23.6c-1.3,0.1-2.6,0-2.6-0.1s1.2-0.2,2.6-0.2c1.5,0,2.6,0,2.6,0.1C684.2,23.4,683.1,23.5,681.6,23.6z"/>
	<path d="M961.9,30.1c1.2-0.1,3.1-0.2,4-0.1c2.2,0.1-1.2,0.8-4.2,0.8C958.8,30.7,958.8,30.4,961.9,30.1z"/>
	<path d="M971.5,31c-0.8,0.1-2.8,0.2-4.3,0.2c-3.3-0.1-3.2-0.4,0.2-0.5C971.3,30.5,973.3,30.7,971.5,31z"/>
	<path d="M987.8,23.8c0-0.1,1.1-0.2,2.6-0.3c1.4-0.1,2.6,0,2.6,0.2s-1.1,0.3-2.6,0.3C988.9,24,987.8,23.9,987.8,23.8z"/>
	<path d="M992.9,29.4c-3.2-0.3-3.1-0.5,0.1-0.4c1.4,0.1,2.5,0.2,2.5,0.4C995.4,29.6,995,29.6,992.9,29.4z"/>
	<path d="M1010.2,29.1c-0.8,0.1-1.4,0.1-1.6-0.1c-0.1-0.2,0.5-0.3,1.3-0.2C1010.8,28.8,1010.9,29,1010.2,29.1z"/>
	<path d="M1015,26c-2.1,0-2.9-0.1-2.1-0.3c1-0.2,1.9-0.3,3.5-0.1C1019.5,25.9,1019.1,26,1015,26z"/>
	<path d="M1193.5,25.8c-1.5,0-2.6-0.1-2.6-0.2s1.1-0.2,2.6-0.2s2.6,0.1,2.6,0.2C1196.1,25.8,1195,25.8,1193.5,25.8z"/>
	<path d="M1206.5,26.7c-3.2-0.3-3.3-0.5-0.1-0.5c1.5,0,2.7,0.2,2.7,0.4C1209.1,26.9,1208.6,26.9,1206.5,26.7z"/>
	<path d="M1217.9,19c-3.1,0.2-3.7,0.2-3.7-0.1c0-0.2,1.1-0.3,2.4-0.3C1220.8,18.6,1221.5,18.8,1217.9,19z"/>
	<path d="M1224.4,18.7c-1.5-0.1-2.6-0.2-2.6-0.3s1.1-0.1,2.6-0.1c1.5,0.1,2.6,0.2,2.6,0.3S1225.9,18.7,1224.4,18.7z"/>
	<path d="M1234,25c-0.7,0.1-1.3,0-1.3-0.2s0.6-0.3,1.3-0.2S1234.7,24.9,1234,25z"/>
	<path d="M1239.1,19.6c-0.7,0.1-1.3,0-1.3-0.2s0.6-0.3,1.3-0.2C1239.8,19.3,1239.8,19.5,1239.1,19.6z"/>
	<path d="M1242.5,21.5c-1.5,0-2.6-0.1-2.6-0.2s1.1-0.2,2.6-0.2s2.6,0.1,2.6,0.2S1244,21.5,1242.5,21.5z"/>
	<path d="M1245,18.6c-1.5,0-2.6,0-2.6-0.1c0,0,1.1-0.1,2.6-0.2c1.4-0.1,2.6,0,2.6,0.1S1246.4,18.6,1245,18.6z"/>
	<path d="M1268.3,22.1c2.3-0.2,2.6-0.2,2.6,0s-1.2,0.3-2.7,0.4C1264.9,22.7,1264.9,22.5,1268.3,22.1z"/>
	<path d="M1286.3,24.6c5.9,0.4,6,0.4,2,0.6c-2.5,0.1-3.7,0.3-2.8,0.3c0.9,0.1-0.7,0.1-3.7,0c-3.4,0-5.7,0-6.6,0.3
		c-0.7,0.2-3.4,0.3-6,0.3c-3.4,0-3.8,0-1.3-0.1c1.8-0.1,3.3-0.3,3.3-0.5s-0.8-0.6-1.7-0.9c-1.6-0.5-1.3-0.5,4.4-0.5
		C1277.1,24.2,1282.8,24.4,1286.3,24.6z"/>
	<path d="M1283.7,21.6c-1.5,0-2.6,0-2.6-0.1s1.1-0.1,2.6-0.2c1.4-0.1,2.6,0,2.6,0.1S1285.1,21.6,1283.7,21.6z"/>
	<path d="M1308.5,18.7c-1.9,0.1-6.7-0.1-6.7-0.3c0-0.1,1-0.2,2.5-0.2C1307.1,18.2,1310.3,18.6,1308.5,18.7z"/>
	<path d="M1353.1,18.4c-1.5,0-2.6,0-2.6-0.1s1.1-0.1,2.6-0.2c1.4-0.1,2.6,0,2.6,0.1S1354.5,18.4,1353.1,18.4z"/>
	<path d="M1402.2,20.1c-1.5,0-2.7-0.1-2.7-0.2s0.5-0.2,1.1-0.2s1.8,0.1,2.7,0.2C1404.2,20,1403.7,20.1,1402.2,20.1z"/>
	<path d="M1418.6,22c2.7,0,3.8,0.3,1.5,0.4c-1.5,0.1-2.7,0-2.7-0.2S1417.9,22,1418.6,22z"/>
	<path d="M1422.3,23.6c-5.1,0-6.5-0.2-2.2-0.4c1.3-0.1,1.6-0.2,0.7-0.4c-1-0.2-0.6-0.2,1-0.2c1.5,0.1,3.3,0.3,3.9,0.5
		C1426.6,23.5,1425.8,23.6,1422.3,23.6z"/>
	<path d="M1433.1,24.8c-1.5,0-2.7-0.1-2.7-0.2s0.5-0.2,1.1-0.2s1.8,0.1,2.7,0.2C1435,24.8,1434.5,24.8,1433.1,24.8z"/>
	<path d="M1438.8,24.2c-3.7,0.1-3.9,0.1-1.3-0.1c1.7-0.1,3.8-0.2,4.5-0.1S1441.3,24.2,1438.8,24.2z"/>
	<path d="M1463.8,17.9c-1.5,0-2.6,0-2.6-0.1s1.1-0.1,2.6-0.2c1.4-0.1,2.6,0,2.6,0.1S1465.2,17.9,1463.8,17.9z"/>
	<path d="M1487.2,25.8c-1.7-0.1-3,0-3.1,0.2s-5.9-0.5-7.2-0.9c-0.1,0,2.2,0,5.4,0.2C1488,25.5,1492.6,26,1487.2,25.8z"/>
	<path d="M1495.3,26.5c-1.7,0-3.2-0.1-3.2-0.2s2-0.3,4.2-0.3C1500.7,26,1500,26.4,1495.3,26.5z"/>
	<path d="M1507.4,25.3c-1.5,0-2.6-0.1-2.6-0.3c0-0.2,1.1-0.3,2.6-0.3s2.6,0.1,2.6,0.3C1510,25.2,1508.9,25.3,1507.4,25.3z"/>
	<path d="M1516.6,24.1c-4.9,0-9.1,0-9.1-0.1s3.4-0.1,7.6-0.1C1525.9,23.9,1527.2,24.1,1516.6,24.1z"/>
	<path d="M1530.8,24.1c-1.5,0.1-2.7,0-2.7-0.2s0.6-0.3,1.2-0.3C1532.1,23.6,1533.2,24,1530.8,24.1z"/>
	<path d="M1548.6,24.7c-1.5,0-2.6,0-2.6-0.1s1.1-0.1,2.6-0.2c1.4-0.1,2.6,0,2.6,0.1S1550,24.7,1548.6,24.7z"/>
	<path d="M1556.5,22c-1.4,0.1-2.6,0-2.6-0.1s1.2-0.2,2.6-0.2c1.5,0,2.6,0,2.6,0.1C1559,21.9,1557.9,22,1556.5,22z"/>
	<path d="M1577,17.9c-1.5,0-2.6-0.1-2.6-0.2s1.1-0.2,2.6-0.2s2.6,0.1,2.6,0.2S1578.5,17.9,1577,17.9z"/>
	<path d="M1587.5,24.2c1.3,0,2.5,0.1,2.5,0.3c0,0.3-0.3,0.3-2.5,0C1584.2,24.2,1584.2,24.2,1587.5,24.2z"/>
	<path d="M1589.8,26.2c-1.5,0-2.6-0.1-2.6-0.3s1.1-0.3,2.6-0.3s2.6,0.1,2.6,0.3S1591.3,26.2,1589.8,26.2z"/>
	<path d="M1594.9,24.9c-1.5,0.1-2.6,0-2.6-0.1s1.1-0.2,2.6-0.3c1.5-0.1,2.6,0,2.6,0.1S1596.4,24.9,1594.9,24.9z"/>
	<path d="M1607.6,22.4c-2.6-0.1-2.6-0.3,0.1-0.6c1.5-0.2,2.1-0.1,2.1,0.2C1609.8,22.3,1608.8,22.4,1607.6,22.4z"/>
	<path d="M1615.5,24.6c-1.3,0.1-2.6,0-2.6-0.1s1.2-0.2,2.6-0.2c1.5,0,2.6,0,2.6,0.1S1617,24.5,1615.5,24.6z"/>
	<path d="M1623.4,23.8c-1.5,0-2.6,0-2.6-0.1c0,0,1.1-0.1,2.6-0.2c1.4-0.1,2.6,0,2.6,0.1C1625.9,23.7,1624.8,23.8,1623.4,23.8z"/>
	<path d="M1635.4,22c-0.7,0.1-1.3,0-1.3-0.2s0.6-0.3,1.3-0.2C1636.1,21.7,1636.1,21.9,1635.4,22z"/>
	<path d="M1679.8,19.8c-2.9,0-3.1-0.5-0.2-0.6c1.1,0,2.1,0.1,2.3,0.2C1682.1,19.6,1681.2,19.8,1679.8,19.8z"/>
	<path d="M1753.7,27.7c-0.8,0.1-1.4,0.1-1.6-0.1c-0.1-0.2,0.5-0.3,1.3-0.2C1754.3,27.5,1754.4,27.6,1753.7,27.7z"/>
	<path d="M1754.6,25.6c-1.8,0.1-2.6,0-2.4-0.4c0.2-0.5,0.4-0.6,2.7-0.2C1756.5,25.3,1756.4,25.5,1754.6,25.6z"/>
	<path d="M1758.3,20.8c0.7,0,1.9,0.1,2.8,0.2c0.8,0.1,0.2,0.2-1.2,0.2c-1.5,0-2.8-0.1-2.8-0.2C1757,20.9,1757.6,20.8,1758.3,20.8z"
		/>
	<path d="M1767.7,28c-1.6,0.2-3,0.2-6.2,0c-5-0.3-5.6-0.7-1.3-0.9c2-0.1,2.5,0,1.5,0.3c-1.1,0.3-0.5,0.4,2,0.3
		C1768.1,27.5,1770.3,27.7,1767.7,28z"/>
	<path d="M1781.7,18.4c2.2,0.1,3.5,0.2,2.8,0.3c-1.9,0.1-6.9-0.1-6.9-0.3C1777.6,18.3,1779.2,18.3,1781.7,18.4z"/>
	<path d="M1781.8,30c-3.4,0.2-4.1,0.2-4,0c0.1-0.1,1.2-0.4,2.3-0.5c1.7-0.2,2.6-0.2,4,0C1785.1,29.7,1784,29.9,1781.8,30z"/>
	<path d="M1784.5,28.7c-1.3,0-3.2,0.1-4.4,0.2c-1.5,0.2-2.2,0.1-2.3-0.3c-0.1-0.4,0.9-0.5,4.3-0.4
		C1786.4,28.3,1788.7,28.7,1784.5,28.7z"/>
	<path d="M1805.6,31.3c-1.2,0-2.2,0-2.2,0.1s-1.7,0.2-3.7,0.2c-2.8,0-3.2-0.1-1.6-0.4c1.2-0.2,1.8-0.5,1.3-0.6
		c-0.4-0.1-0.1-0.1,0.6,0s2.3,0.1,3.4,0.1s2.6,0.1,3.2,0.3C1807.3,31.2,1806.8,31.4,1805.6,31.3z"/>
	<path d="M1807.9,17.9c-0.8,0.1-1.4,0.1-1.6-0.1c-0.1-0.2,0.5-0.3,1.3-0.2C1808.5,17.7,1808.6,17.8,1807.9,17.9z"/>
	<path d="M1818.9,24.5c-1.4,0-2.6-0.1-2.6-0.3c0-0.1,1.1-0.3,2.6-0.3c1.4,0,2.6,0.1,2.6,0.3S1820.4,24.5,1818.9,24.5z"/>
	<path d="M1828.5,27.2c-0.8,0.1-1.4,0.1-1.6-0.1c-0.1-0.2,0.5-0.3,1.3-0.2C1829.1,27,1829.2,27.1,1828.5,27.2z"/>
	<path d="M1834.4,24.7c-1.5,0-2.6,0-2.6-0.1c0,0,1.1-0.1,2.6-0.2c1.4-0.1,2.6,0,2.6,0.1S1835.8,24.7,1834.4,24.7z"/>
	<path d="M1852.6,30.7c-0.1,0-1.4,0-2.8-0.2s-2-0.4-1.3-0.5s1.2-0.3,1.2-0.5c0-0.1,1.1-0.2,2.7-0.1
		C1854.7,29.6,1854.8,30.1,1852.6,30.7z"/>
	<path d="M1859.6,27c-2.2,0-3.8-0.1-3.8-0.2s0.2-0.2,0.5-0.2s1.9,0.1,3.8,0.2C1862.9,27,1862.8,27,1859.6,27z"/>
	<path d="M1860.1,20.8c-1.5,0-2.6-0.1-2.6-0.2s1.1-0.2,2.6-0.2s2.6,0.1,2.6,0.2C1862.7,20.7,1861.6,20.8,1860.1,20.8z"/>
	<path d="M1870.3,22.9c0-0.1,1.2-0.3,2.6-0.3c1.5,0,2.6,0.1,2.6,0.2s-1.1,0.2-2.6,0.3C1871.4,23.1,1870.3,23,1870.3,22.9z"/>
	<path d="M1882.8,25.3c-1.5,0-1.9-0.1-1-0.2c0.8-0.1-0.7-0.2-3.7-0.3c-3.1-0.1-5.1-0.2-4.9-0.5c0.1-0.2,0.8-0.3,1.5-0.2
		c0.7,0.1,2.4,0.2,3.8,0.2s4.3,0.1,6.5,0.3C1888.7,25,1887.4,25.3,1882.8,25.3z"/>
	<path d="M1884.2,22.3c-2.2,0-3.2-0.1-2.3-0.2c0.9-0.1,3.3-0.2,5.5-0.2s3.2,0.1,2.3,0.2C1888.8,22.2,1886.4,22.3,1884.2,22.3z"/>
	<path d="M1891,22.7c-1.5,0.1-2.6,0-2.6-0.1s1.1-0.2,2.6-0.3c1.5-0.1,2.6,0,2.6,0.1C1893.5,22.5,1892.4,22.7,1891,22.7z"/>
	<path d="M1896.2,21.7c-3.2-0.1-3.6-0.4-0.7-0.5c1.1,0,3.3,0,5.1,0.1C1904.1,21.6,1900.6,21.9,1896.2,21.7z"/>
	<path d="M1906.4,27.7c-1.5,0-2.6,0-2.6-0.1s1.1-0.1,2.6-0.2c1.4-0.1,2.6,0,2.6,0.1S1907.8,27.7,1906.4,27.7z"/>
	<path d="M1910.2,26.2c-2.2,0-3.9-0.1-3.9-0.1c0-0.1,1.7-0.1,3.9-0.1c2.2,0,3.9,0.1,3.9,0.1S1912.4,26.2,1910.2,26.2z"/>
	<path d="M1911.6,23.7c-1.5,0.1-2.6,0-2.6-0.1s1.1-0.2,2.6-0.3c1.5-0.1,2.6,0,2.6,0.1C1914.1,23.6,1913,23.7,1911.6,23.7z"/>
	<path d="M1916.6,27.4c0-0.1,0.4-0.2,1-0.2"/>
	<path d="M316.9,20.8c-4.1-0.3-6.1-0.3-10-0.2c-5.9,0.2-6.6,0.8-1.2,1.1c5.7,0.3,10.5,0.3,13.6-0.2
		C321.6,21.2,321.3,21.1,316.9,20.8z"/>
	<path d="M558.1,21.2c-0.8,0-2.8,0-4.1-0.1c-3.4-0.2-9.9,0.4-10.4,0.9c-0.2,0.2,0.6,0.6,1.9,0.9s3.1,0.5,4.1,0.5
		c1,0,2.1,0.1,2.4,0.3c0.6,0.3,0.7,0.3,0.8,0c0.1-0.2,1-0.3,1.8-0.2c2.8,0.1,9.4-0.5,9.4-0.9C564.2,22.1,560,21.1,558.1,21.2z"/>
	<path d="M838.1,33.4c-2.2,0-3.8,0.1-3.8,0.2s1.6,0.2,3.8,0.4c3.2,0.2,3.8,0.2,3.8-0.2C841.9,33.6,840.3,33.4,838.1,33.4z"/>
	<path d="M979.8,33.6c0,0.2,0.7,0.4,1.7,0.5c6.7,0.4,29.2-0.5,25.8-1.1C1003.7,32.4,979.8,32.9,979.8,33.6z"/>
	<path d="M1075.9,27.4c-1.7,0-2.7-0.2-2-0.2c0.7-0.1-0.6-0.2-3.1-0.4c-2.9-0.2-3.8-0.2-2.4,0c1.1,0.1,0.8,0.2-0.6,0.2
		c-1.6,0-2-0.2-1-0.5c1.4-0.5,1.2-0.5-2.8-0.3c-4.5,0.2-5.1,0.2-7.5-0.6c-0.8-0.3-1.5-0.2-3,0.2c-1.1,0.3-3.1,0.5-4.5,0.4
		c-1.6-0.1-2.2,0.1-1.5,0.4c0.6,0.3,0.1,0.5-1.1,0.5c-2.6,0-2.5,0.2,0.3,0.5c1.9,0.2,2.9,0.2,5.1-0.1c1.5-0.2,2.8-0.2,2.8-0.2
		c0.1,0.1,1.2,0.1,2.6-0.1c1.9-0.2,3-0.2,5.2,0.2c3.1,0.5,4.9,0.6,12,0.2C1077.7,27.6,1078.2,27.5,1075.9,27.4z M1071.5,27.3
		c-0.5,0.2-1,0.4-1.1,0.4c-0.1,0.1-1.5,0.1-2.9,0.1c-3.8,0-2.9-0.4,1.2-0.7C1071.6,27,1072.2,27.1,1071.5,27.3z"/>
	<path d="M1255.4,26.8c0,0,1.1,0.1,2.6,0.2c1.3,0.1,2.6,0,2.6-0.1s-1.2-0.2-2.6-0.2C1256.5,26.7,1255.4,26.7,1255.4,26.8z"/>
	<path d="M1270.8,27.3c0,0,1.1,0.1,2.6,0.2c1.4,0.1,2.6,0,2.6-0.1s-1.2-0.2-2.6-0.2C1271.9,27.2,1270.8,27.2,1270.8,27.3z"/>
	<path d="M1271.5,26.9c-0.9,0.1,0.7,0.1,3.4,0.1c2.9,0,3.6,0,1.6-0.1C1274.5,26.9,1272.4,26.9,1271.5,26.9z"/>
	<path d="M1299,26.2c0,0.1,1,0.2,2.5,0.3c2.9,0.1,5.9-0.1,3.4-0.3C1302.5,26,1299,26,1299,26.2z"/>
	<path d="M1314.7,21.2c1.2,0,2.9,0,3.8-0.1s-0.7-0.2-3.9-0.2c-2.9,0-4.8-0.1-4-0.2c0.9-0.1,0.5-0.2-1-0.3c-3.9-0.2-4.9,0.1-2.1,0.6
		c1.5,0.2,3.1,0.3,3.8,0.2C1311.9,21.2,1313.5,21.2,1314.7,21.2z"/>
	<path d="M1317.2,21.9c-2.9,0.1-5.1,0.1-5.1,0.2c0,0,2.2,0.1,5.1,0.1s5.1-0.1,5.1-0.2C1322.3,21.9,1320.1,21.9,1317.2,21.9z"/>
	<path d="M1314.7,26.3c0.1,0.2,0.8,0.2,1.6,0.1c0.7-0.1,0.6-0.3-0.2-0.3C1315.2,26,1314.6,26.1,1314.7,26.3z"/>
	<path d="M1342.5,23c-0.7-0.4-2.2-0.5-8-0.5c-3.9,0-7.1,0-7.1,0.1s2,0.2,4.2,0.2c2.8,0,3.6,0.1,2.5,0.3c-1,0.2-0.9,0.2,0.1,0.2
		c1-0.1,3.6,0,5.5,0.1C1342.8,23.5,1343.2,23.5,1342.5,23z"/>
	<path d="M1332,22.1c1.5-0.1,3.4,0,4,0.1c0.7,0.1,1.3,0.1,1.5-0.1c0.3-0.3-3.6-0.4-6.5-0.1C1329.9,22.1,1330.3,22.1,1332,22.1z"/>
	<path d="M1331.1,20.4c-0.7,0-1.2,0.1-1.2,0.2s1.3,0.2,2.8,0.2s2.1-0.1,1.2-0.2S1331.8,20.4,1331.1,20.4z"/>
	<path d="M1340.2,24.3c0,0.1,1.7,0.1,3.7-0.1c2-0.1,3.2-0.2,2.7-0.3C1345.1,23.9,1340.2,24.2,1340.2,24.3z"/>
	<path d="M1345.6,21.5c-3.3,0-3.3,0-0.1,0.3c2.2,0.2,2.5,0.2,2.5,0C1348,21.6,1346.9,21.5,1345.6,21.5z"/>
	<path d="M1350.1,21.1c-2.3,0.1-1.6,0.1,2.6,0.1c5.1,0,5.5,0,3.1-0.3c-1.6-0.2-4-0.3-5.6-0.3c-1.8,0-1.6-0.1,0.5-0.3
		c2.3-0.2,2.5-0.3,0.7-0.4c-1.7-0.1-3,0-3.9,0.3c-0.8,0.3,0.1,0.5,2.3,0.6C1352.7,21,1352.8,21,1350.1,21.1z"/>
	<path d="M1355.9,24.6c-7.4-0.2-9.2,0-3.9,0.3c2.7,0.1,4.8,0.2,6.7,0C1360.7,24.8,1359.8,24.7,1355.9,24.6z"/>
	<path d="M1358.6,22.1c0.1,0.2,0.8,0.2,1.6,0.1c0.8-0.1,0.7-0.3-0.2-0.3C1359.1,21.8,1358.4,21.9,1358.6,22.1z"/>
	<path d="M1377.6,19.3c-2.2-0.1-4.6-0.2-5.3-0.1s0.6,0.2,2.8,0.3c2.2,0.1,4.6,0.2,5.3,0.1C1381,19.5,1379.8,19.4,1377.6,19.3z"/>
	<path d="M1422.5,24c-3.2,0-3.2,0.2,0.2,0.5c2,0.2,2.5,0.2,2.5-0.1C1425.2,24.2,1424,24,1422.5,24z"/>
	<path d="M1541,25.8c3.2-0.2,3.1-0.2-1.1-0.1c-6.1,0.1-7.9,0.4-3.4,0.6c1.8,0.1,5.4,0.2,8.3,0.3c4.2,0.1,3.9,0-1.2-0.2
		C1538.2,26.1,1537.8,26,1541,25.8z"/>
	<path d="M1613.7,26c-1.9,0.1-2.1,0.2-0.6,0.4c2,0.2,2.6,0.2,4.1-0.1C1619.2,25.9,1617.9,25.8,1613.7,26z"/>
	<path d="M1630.5,25.7c-2-0.2-2.2-0.2-1.3,0c0.6,0.1-0.5,0.4-2.6,0.5c-3.3,0.3-3.2,0.3,0.7,0.2C1632.6,26.4,1634.2,26,1630.5,25.7z"
		/>
	<path d="M1642.6,25.3c-5.2,0.1-4.7,0.2,1.2,0.2c2.7,0,4.4-0.1,3.7-0.1C1646.8,25.2,1644.6,25.2,1642.6,25.3z"/>
	<path d="M1721.1,24.6c-1.5-0.1-2.6,0-2.6,0.1s1.1,0.3,2.6,0.4s2.6,0,2.6-0.1C1723.7,24.8,1722.6,24.6,1721.1,24.6z"/>
	<path d="M1831.8,32.3c0,0.1,1.2,0.1,2.6,0.1c1.5-0.1,2.6-0.1,2.6-0.2s-1.1-0.1-2.6-0.1C1833,32.1,1831.8,32.2,1831.8,32.3z"/>
	<path d="M1852.4,31.3c0,0.1,1.2,0.2,2.6,0.2c1.5-0.1,2.6-0.2,2.6-0.3c0-0.1-1.1-0.2-2.6-0.2C1853.5,31.1,1852.4,31.2,1852.4,31.3z"
		/>
	<path d="M1870.3,28c-1,0-2.3,0.3-3.1,0.6c-0.8,0.4-2.2,0.8-3.3,1c-1.6,0.3-1.3,0.3,1.5,0.1C1869,29.5,1873.3,28,1870.3,28z"/>
	<path d="M1870.3,30.6c0,0.2,1.3,0.3,3.2,0.3c4.9-0.1,5.7-0.6,1-0.6C1872,30.2,1870.3,30.4,1870.3,30.6z"/>
	<path d="M1886.9,29.6c-0.7,0-1.2,0.1-1.2,0.2s1.3,0.2,2.8,0.2s2.1-0.1,1.2-0.2C1888.8,29.6,1887.6,29.6,1886.9,29.6z"/>
	<path d="M1898.6,29.4c-3.3,0.3-3.3,1.2,0.1,1.2c1.3,0,2.5-0.3,2.5-0.7C1901.1,29.3,1900.5,29.2,1898.6,29.4z"/>
	<path d="M1910.1,29.1c0.8-0.1-0.9-0.3-3.8-0.5c-3.9-0.2-5.1-0.2-5-0.1s1.8,0.3,3.8,0.5C1907,29.1,1909.4,29.2,1910.1,29.1z"/>
	<path d="M1908,29.9c-4.7,0.5-5.1,0.7-1.7,0.7c1.4,0,2.7-0.1,2.7-0.2s0.7-0.4,1.5-0.5C1911.2,29.6,1910.1,29.7,1908,29.9z"/>
	<g>
		<path d="M425.3,19.1c1.2,0,2.9,0,3.8-0.1s-0.7-0.2-3.9-0.2c-2.9,0-4.8-0.1-4-0.2c0.9-0.1,0.5-0.2-1-0.3c-3.9-0.2-4.9,0.1-2.1,0.6
			c1.5,0.2,3.1,0.3,3.8,0.2C422.5,19.1,424.1,19.1,425.3,19.1z"/>
		<path d="M427.8,19.8c-2.9,0.1-5.1,0.1-5.1,0.2c0,0,2.2,0.1,5.1,0.1s5.1-0.1,5.1-0.2C432.9,19.8,430.7,19.8,427.8,19.8z"/>
		<path d="M425.3,24.2c0.1,0.2,0.8,0.2,1.6,0.1c0.7-0.1,0.6-0.3-0.2-0.3C425.8,23.9,425.2,24,425.3,24.2z"/>
		<path d="M453.1,20.9c-0.7-0.4-2.2-0.5-8-0.5c-3.9,0-7.1,0-7.1,0.1s2,0.2,4.2,0.2c2.8,0,3.6,0.1,2.5,0.3c-1,0.2-0.9,0.2,0.1,0.2
			c1-0.1,3.6,0,5.5,0.1C453.4,21.4,453.8,21.4,453.1,20.9z"/>
		<path d="M442.6,20c1.5-0.1,3.4,0,4,0.1c0.7,0.1,1.3,0.1,1.5-0.1c0.3-0.3-3.6-0.4-6.5-0.1C440.5,20,440.9,20,442.6,20z"/>
		<path d="M441.7,18.3c-0.7,0-1.2,0.1-1.2,0.2s1.3,0.2,2.8,0.2s2.1-0.1,1.2-0.2S442.4,18.3,441.7,18.3z"/>
		<path d="M450.8,22.2c0,0.1,1.7,0.1,3.7-0.1c2-0.1,3.2-0.2,2.7-0.3C455.7,21.8,450.8,22.1,450.8,22.2z"/>
		<path d="M456.2,19.4c-3.3,0-3.3,0-0.1,0.3c2.2,0.2,2.5,0.2,2.5,0C458.6,19.5,457.5,19.4,456.2,19.4z"/>
		<path d="M460.7,19c-2.3,0.1-1.6,0.1,2.6,0.1c5.1,0,5.5,0,3.1-0.3c-1.6-0.2-4-0.3-5.6-0.3c-1.8,0-1.6-0.1,0.5-0.3
			c2.3-0.2,2.5-0.3,0.7-0.4c-1.7-0.1-3,0-3.9,0.3c-0.8,0.3,0.1,0.5,2.3,0.6C463.3,18.9,463.4,18.9,460.7,19z"/>
		<path d="M466.5,22.5c-7.4-0.2-9.2,0-3.9,0.3c2.7,0.1,4.8,0.2,6.7,0C471.3,22.7,470.4,22.6,466.5,22.5z"/>
		<path d="M469.2,20c0.1,0.2,0.8,0.2,1.6,0.1c0.8-0.1,0.7-0.3-0.2-0.3C469.7,19.7,469,19.8,469.2,20z"/>
		<path d="M488.2,17.2c-2.2-0.1-4.6-0.2-5.3-0.1s0.6,0.2,2.8,0.3c2.2,0.1,4.6,0.2,5.3,0.1C491.6,17.4,490.4,17.3,488.2,17.2z"/>
	</g>
	<path d="M1668.7,20.4c1.2,0,2.9,0,3.8-0.1s-0.7-0.2-3.9-0.2c-2.9,0-4.8-0.1-4-0.2c0.9-0.1,0.5-0.2-1-0.3c-3.9-0.2-4.9,0.1-2.1,0.6
		c1.5,0.2,3.1,0.3,3.8,0.2C1665.9,20.4,1667.5,20.4,1668.7,20.4z"/>
	<path d="M1671.2,21.1c-2.9,0.1-5.1,0.1-5.1,0.2c0,0,2.2,0.1,5.1,0.1s5.1-0.1,5.1-0.2C1676.3,21.1,1674.1,21.1,1671.2,21.1z"/>
	<path d="M1668.7,25.5c0.1,0.2,0.8,0.2,1.6,0.1c0.7-0.1,0.6-0.3-0.2-0.3C1669.2,25.2,1668.6,25.3,1668.7,25.5z"/>
	<path d="M1696.5,22.2c-0.7-0.4-2.2-0.5-8-0.5c-3.9,0-7.1,0-7.1,0.1s2,0.2,4.2,0.2c2.8,0,3.6,0.1,2.5,0.3c-1,0.2-0.9,0.2,0.1,0.2
		c1-0.1,3.6,0,5.5,0.1C1696.8,22.7,1697.2,22.7,1696.5,22.2z"/>
	<path d="M1686,21.3c1.5-0.1,3.4,0,4,0.1c0.7,0.1,1.3,0.1,1.5-0.1c0.3-0.3-3.6-0.4-6.5-0.1C1683.9,21.3,1684.3,21.3,1686,21.3z"/>
	<path d="M1685.1,19.6c-0.7,0-1.2,0.1-1.2,0.2s1.3,0.2,2.8,0.2s2.1-0.1,1.2-0.2S1685.8,19.6,1685.1,19.6z"/>
	<path d="M1694.2,23.5c0,0.1,1.7,0.1,3.7-0.1c2-0.1,3.2-0.2,2.7-0.3C1699.1,23.1,1694.2,23.4,1694.2,23.5z"/>
	<path d="M1699.6,20.7c-3.3,0-3.3,0-0.1,0.3c2.2,0.2,2.5,0.2,2.5,0C1702,20.8,1700.9,20.7,1699.6,20.7z"/>
	<path d="M1704.1,20.3c-2.3,0.1-1.6,0.1,2.6,0.1c5.1,0,5.5,0,3.1-0.3c-1.6-0.2-4-0.3-5.6-0.3c-1.8,0-1.6-0.1,0.5-0.3
		c2.3-0.2,2.5-0.3,0.7-0.4c-1.7-0.1-3,0-3.9,0.3c-0.8,0.3,0.1,0.5,2.3,0.6C1706.7,20.2,1706.8,20.2,1704.1,20.3z"/>
	<path d="M1709.9,23.8c-7.4-0.2-9.2,0-3.9,0.3c2.7,0.1,4.8,0.2,6.7,0C1714.7,24,1713.8,23.9,1709.9,23.8z"/>
	<path d="M1712.6,21.3c0.1,0.2,0.8,0.2,1.6,0.1c0.8-0.1,0.7-0.3-0.2-0.3C1713.1,21,1712.4,21.1,1712.6,21.3z"/>
	<path d="M1731.6,18.5c-2.2-0.1-4.6-0.2-5.3-0.1s0.6,0.2,2.8,0.3c2.2,0.1,4.6,0.2,5.3,0.1C1735,18.7,1733.8,18.6,1731.6,18.5z"/>
</g>
</svg>
