<?xml version="1.0" encoding="utf-8"?>
<!-- Generator: Adobe Illustrator 26.3.1, SVG Export Plug-In . SVG Version: 6.00 Build 0)  -->
<svg version="1.1" id="Layer_1" xmlns="http://www.w3.org/2000/svg" xmlns:xlink="http://www.w3.org/1999/xlink" x="0px" y="0px"
	 viewBox="0 0 72 72" style="enable-background:new 0 0 72 72;" xml:space="preserve">
<style type="text/css">
	.st0{fill:#F7DD4C;}
	.st1{fill:#2C2C2E;}
</style>
<g>
	<path class="st0" d="M70.11,32.83c-0.38-2.37-1.16-4.66-2.09-6.89c-1.54-3.72-3.84-6.96-6.64-9.82c-1.85-1.9-3.99-3.48-6.14-5.05
		c-1.79-1.31-3.6-2.5-5.61-3.41c-1.71-0.77-3.42-1.52-5.25-2.05c-1.5-0.44-2.95-1.16-4.48-1.53c-2.32-0.55-4.65-0.99-7.05-1.17
		c-3.64-0.28-7.1,0.34-10.45,1.59c-4.42,1.65-8.05,4.5-11.31,7.85c-1.02,1.05-2.05,2.1-3.01,3.21c-0.85,1-2.16,1.26-3.28,1.82
		c-1.44,0.73-2.37,1.85-2.93,3.26c-0.25,0.63-0.63,1.33-0.38,2.06c0.37,1.12,0.73,2.25,1.18,3.35c0.53,1.31,1.26,2.48,0.98,4.17
		c-0.39,2.31-0.77,4.69-0.49,7.08c0.07,1.71,0.02,3.41,0.25,5.12c0.32,2.38,1.02,4.64,1.94,6.81c1.57,3.72,3.79,7.03,6.78,9.8
		c2.11,1.96,4.43,3.64,6.93,5.01c2.49,1.35,5.09,2.51,7.83,3.34c2.2,0.67,4.43,1.2,6.68,1.49c2.03,0.26,4.11,0.4,6.17,0.23
		c1.59-0.13,3.18-0.17,4.76-0.45c1.67-0.31,3.32-0.7,4.92-1.21c1.5-0.48,2.97-1.16,4.4-1.9c2.4-1.25,4.63-2.75,6.6-4.58
		c1.64-1.51,3.11-3.18,4.45-4.99c1.55-2.09,2.69-4.36,3.63-6.76c1.05-2.67,1.48-5.47,1.86-8.29C70.72,38.21,70.54,35.51,70.11,32.83
		z M67.72,30.97c-0.02,0.39-0.27,0.62-0.65,0.62c-0.26-0.01-0.49-0.12-0.49-0.45c0.01-0.43,0.35-0.52,0.64-0.64
		C67.54,30.51,67.73,30.68,67.72,30.97z M66.42,28.26c0.26,0.06,0.52,0.16,0.47,0.49c-0.05,0.31-0.26,0.51-0.59,0.53
		c-0.27,0.02-0.45-0.12-0.45-0.39C65.85,28.54,66.06,28.33,66.42,28.26z M65.91,39.42c-0.45,0.03-0.75-0.04-0.75-0.41
		c-0.01-0.52,0.39-0.67,0.82-0.66c0.27,0.01,0.73-0.1,0.72,0.38C66.67,39.29,66.2,39.36,65.91,39.42z M67.05,40.32
		c0.34-0.04,0.49,0.24,0.47,0.57c-0.03,0.4-0.3,0.5-0.78,0.47c-0.15-0.03-0.5-0.06-0.49-0.42C66.27,40.47,66.71,40.37,67.05,40.32z
		 M59.78,41.92c-0.43-0.08-1.15,0.14-1.14-0.54c0.02-0.62,0.72-0.35,1.13-0.49c0.22,0.02,0.45,0.03,0.68,0.07
		c0.24,0.05,0.44,0.21,0.43,0.46c-0.02,0.27-0.19,0.47-0.49,0.49C60.18,41.91,59.97,41.95,59.78,41.92z M60.07,43.6
		c0.01,0.06-0.08,0.16-0.14,0.17c-0.12,0.03-0.23-0.05-0.23-0.18c0-0.07,0.08-0.13,0.12-0.18C59.98,43.39,60.06,43.48,60.07,43.6z
		 M59.49,45.49c0.43-0.07,0.75,0.19,0.72,0.63c-0.04,0.58-0.56,0.31-0.89,0.4c-0.33-0.13-0.94,0.2-0.95-0.4
		C58.36,45.43,59.04,45.56,59.49,45.49z M58.81,50.48c0.47-0.04,1.21-0.28,1.25,0.43c0.03,0.61-0.67,0.54-1.34,0.57
		c-0.2,0.02-0.66,0.02-0.72-0.44C57.96,50.53,58.48,50.5,58.81,50.48z M59.77,49.07c-0.01-0.37,0.23-0.58,0.6-0.55
		c0.32,0.02,0.54,0.13,0.54,0.52c0.01,0.4-0.2,0.57-0.54,0.64C60,49.64,59.77,49.42,59.77,49.07z M59.97,39.7
		c-0.32,0.08-0.68,0.14-1.01,0.02c-0.27-0.11-0.53-0.23-0.47-0.6c0.06-0.34,0.29-0.37,0.57-0.38c0.28-0.01,0.57-0.03,0.93-0.06
		c0.37,0.08,1.12-0.34,1.18,0.43C61.22,39.86,60.42,39.59,59.97,39.7z M60,37.29c-0.51-0.01-1.03-0.06-1.54-0.09
		c-0.27-0.01-0.58-0.06-0.6-0.35c-0.03-0.39,0.35-0.39,0.62-0.41c0.51-0.03,1.03-0.01,1.54-0.01v0.02c0.49,0,0.97-0.01,1.45,0.01
		c0.23,0.01,0.48,0.07,0.53,0.34c0.07,0.35-0.25,0.43-0.47,0.5C61.02,37.46,60.51,37.3,60,37.29z M52.94,54.76
		c0.03,0.46-0.32,0.59-0.68,0.56c-0.4-0.03-1,0.08-1.04-0.48c-0.04-0.53,0.49-0.61,0.93-0.64C52.56,54.17,52.91,54.28,52.94,54.76z
		 M52.47,18.17c-0.24,0-0.49-0.06-0.47-0.35c0.02-0.26,0.18-0.49,0.49-0.49c0.24,0,0.43,0.12,0.5,0.35
		C52.91,17.95,52.79,18.18,52.47,18.17z M52.84,56.16c0.29-0.01,0.57,0.09,0.6,0.49c-0.02,0.34-0.23,0.56-0.58,0.59
		c-0.32,0.03-0.56-0.13-0.58-0.48C52.25,56.39,52.48,56.18,52.84,56.16z M53.15,45.59c0.02-0.35,0.27-0.31,0.49-0.32
		c0.4-0.01,0.8-0.01,1.08-0.01c0.63,0.06,1.14,0.09,1.65,0.14c0.25,0.03,0.43,0.17,0.43,0.45c-0.01,0.31-0.18,0.5-0.48,0.49
		c-0.93-0.02-1.89,0.07-2.78-0.28C53.31,45.98,53.13,45.88,53.15,45.59z M58.65,29.04c-0.01,0.45-0.31,0.78-0.77,0.75
		c-0.43-0.03-0.73-0.32-0.77-0.78c-0.04-0.5,0.3-0.62,0.72-0.63C58.25,28.41,58.67,28.51,58.65,29.04z M58.5,26.81
		c0-0.35,0.25-0.47,0.57-0.46c0.33,0,0.52,0.15,0.54,0.48c-0.01,0.38-0.31,0.51-0.57,0.52C58.77,27.35,58.5,27.15,58.5,26.81z
		 M57.34,30.95c0.39-0.03,0.57,0.19,0.63,0.55c-0.03,0.31-0.17,0.54-0.52,0.55c-0.38,0.02-0.62-0.18-0.63-0.54
		C56.82,31.2,57,30.97,57.34,30.95z M56.99,36.08c0.33,0.02,0.51,0.23,0.47,0.57c-0.04,0.32-0.22,0.51-0.54,0.54
		c-0.3-0.08-0.57-0.2-0.55-0.55C56.4,36.3,56.62,36.07,56.99,36.08z M57.45,48.45c-0.06,0.45-0.36,0.6-0.77,0.64
		c-0.44,0.03-0.67-0.23-0.67-0.6c0.01-0.39,0.34-0.59,0.7-0.61C57.1,47.85,57.36,48.05,57.45,48.45z M55.84,40.89
		c0.35,0.07,0.9-0.07,0.95,0.5c0.04,0.5-0.42,0.42-0.77,0.46c-0.33-0.04-0.79,0.07-0.83-0.47C55.17,40.97,55.51,40.82,55.84,40.89z
		 M55.25,24.7c-0.03-0.32,0.15-0.53,0.49-0.54c0.31-0.02,0.42,0.21,0.52,0.4c0,0.36-0.21,0.52-0.47,0.54
		C55.53,25.12,55.27,25,55.25,24.7z M55.84,20.87c-0.41,0.03-0.68-0.24-0.68-0.6c-0.01-0.52,0.39-0.7,0.85-0.77
		c0.42,0.04,0.77,0.25,0.74,0.67C56.72,20.67,56.29,20.84,55.84,20.87z M55.26,29.93c-0.02,0.48-0.26,0.62-0.62,0.61
		c-0.43-0.01-0.75-0.23-0.75-0.65c-0.01-0.42,0.37-0.55,0.73-0.52C54.98,29.41,55.29,29.57,55.26,29.93z M54.71,36.29
		c0.01,0.33-0.19,0.52-0.52,0.56c-0.29-0.04-0.49-0.14-0.51-0.47c-0.02-0.37,0.19-0.53,0.51-0.54C54.49,35.82,54.69,36,54.71,36.29z
		 M53.7,22.78c-0.23-0.01-0.37-0.12-0.35-0.37c0.02-0.25,0.21-0.34,0.4-0.37c0.26-0.03,0.3,0.2,0.37,0.37
		C54.06,22.65,53.93,22.78,53.7,22.78z M54.93,49.38c0.45,0.02,0.83,0.16,0.83,0.67c0,0.43-0.32,0.57-0.71,0.57
		c-0.44-0.01-0.71-0.21-0.7-0.67C54.35,49.57,54.54,49.37,54.93,49.38z M56.33,52.32c0.14,0.01,0.28-0.01,0.42-0.01
		c0.28,0.01,0.63-0.02,0.69,0.33c0.06,0.39-0.27,0.5-0.6,0.54c-0.14,0.02-0.28,0.04-0.46,0.07c-0.33-0.02-0.67-0.14-0.67-0.55
		C55.7,52.37,56.03,52.31,56.33,52.32z M56.87,54.55c0.44-0.01,0.68,0.19,0.69,0.54c0.02,0.38-0.16,0.66-0.59,0.68
		c-0.39,0.02-0.6-0.21-0.64-0.55C56.29,54.82,56.54,54.6,56.87,54.55z M57.31,34.28c0.03-0.4,0.31-0.57,0.67-0.6
		c0.33,0.1,0.73,0.08,0.72,0.57c-0.01,0.45-0.26,0.69-0.68,0.68C57.62,34.93,57.28,34.75,57.31,34.28z M63.4,38.59
		c0.37-0.07,0.81-0.01,0.78,0.53c-0.05,0.86-0.8,0.5-1.15,0.67c-0.43-0.01-0.88,0.08-0.85-0.43C62.2,38.56,62.9,38.68,63.4,38.59z
		 M63.06,36.81c0.01-0.43,0.42-0.58,0.79-0.63c0.37-0.05,0.63,0.16,0.65,0.52c0.03,0.47-0.33,0.61-0.71,0.68
		C63.4,37.36,63.04,37.22,63.06,36.81z M62.05,33.7c-0.37,0.01-0.59-0.24-0.61-0.58c-0.03-0.42,0.28-0.62,0.64-0.63
		c0.37-0.01,0.53,0.27,0.55,0.65C62.62,33.49,62.4,33.69,62.05,33.7z M61.5,35.31c-0.07,0.36-0.27,0.52-0.64,0.52
		c-0.43-0.01-0.64-0.22-0.63-0.62c0.01-0.38,0.32-0.57,0.62-0.55C61.2,34.68,61.47,34.91,61.5,35.31z M61.45,43.49
		c0.13-0.72,0.8-0.49,1.26-0.57c0.35-0.07,0.79,0.02,0.74,0.47c-0.09,0.81-0.89,0.4-1.23,0.67C61.75,44.06,61.38,43.9,61.45,43.49z
		 M63.01,45.15c0.35,0.03,0.52,0.3,0.53,0.62c-0.04,0.4-0.24,0.62-0.62,0.57c-0.35-0.04-0.58-0.27-0.54-0.63
		C62.43,45.38,62.66,45.12,63.01,45.15z M63.75,47.35c0.32,0.06,0.72,0.16,0.67,0.59c-0.04,0.34-0.33,0.5-0.69,0.43
		c-0.41,0.04-0.6-0.18-0.57-0.55C63.2,47.51,63.42,47.29,63.75,47.35z M63.62,41.76c-0.44-0.11-1.2,0.37-1.27-0.36
		c-0.06-0.59,0.73-0.46,1.16-0.57c0.38-0.09,0.78-0.1,1.18-0.16c0.33-0.06,0.59,0.06,0.66,0.38c0.07,0.33-0.24,0.44-0.47,0.5
		C64.47,41.66,64.04,41.7,63.62,41.76z M65.51,42.59c0.29-0.04,0.51,0.13,0.49,0.43c-0.02,0.37-0.29,0.51-0.53,0.53
		c-0.38,0.01-0.65-0.04-0.65-0.38C64.81,42.74,65.18,42.64,65.51,42.59z M65.24,34.83c-0.33,0.03-0.59-0.08-0.58-0.45
		c0-0.43,0.3-0.57,0.57-0.62c0.43-0.02,0.69,0.05,0.69,0.44C65.9,34.63,65.63,34.8,65.24,34.83z M65.81,32.06
		c-0.06,0.46-0.4,0.64-0.72,0.67c-0.46,0.01-0.63-0.17-0.6-0.52c0.05-0.53,0.51-0.55,0.88-0.62C65.66,31.54,65.85,31.77,65.81,32.06
		z M64.82,26.02c0.26-0.02,0.45,0.05,0.45,0.35c0,0.42-0.27,0.59-0.63,0.68c-0.25-0.06-0.53-0.14-0.52-0.44
		C64.14,26.2,64.45,26.05,64.82,26.02z M63.83,24.13c0.29,0.02,0.35,0.22,0.39,0.45c-0.06,0.29-0.24,0.43-0.53,0.43
		c-0.27,0-0.44-0.14-0.42-0.4C63.3,24.3,63.49,24.12,63.83,24.13z M64.24,28.54c0.36-0.05,0.63,0.07,0.63,0.42
		c0.01,0.67-0.57,0.6-0.99,0.69c-0.35,0.07-0.67-0.1-0.66-0.48C63.24,28.48,63.87,28.68,64.24,28.54z M63.63,31.44
		c0.03,0.25-0.13,0.46-0.38,0.5c-0.42,0.07-0.85,0.1-1.27,0.14c0-0.01,0-0.02-0.01-0.03c-0.34,0-0.68,0.03-1.02-0.01
		c-0.23-0.03-0.42-0.17-0.42-0.45c-0.01-0.28,0.15-0.4,0.41-0.44c0.73-0.12,1.48-0.14,2.22-0.12C63.42,31.03,63.6,31.2,63.63,31.44z
		 M61.38,27.07c0.01-0.38,0.23-0.56,0.61-0.54c0.35,0.02,0.5,0.22,0.49,0.45c-0.02,0.49-0.24,0.69-0.6,0.67
		C61.56,27.62,61.37,27.4,61.38,27.07z M62.63,21.9c0.32-0.01,0.46,0.14,0.5,0.41c-0.08,0.36-0.26,0.62-0.62,0.6
		c-0.27-0.01-0.5-0.17-0.49-0.47C62.03,22.08,62.24,21.9,62.63,21.9z M61.47,19.46c0.33,0.01,0.54,0.09,0.62,0.46
		c-0.14,0.32-0.42,0.5-0.77,0.52c-0.26,0.02-0.55-0.09-0.53-0.42C60.81,19.63,61.04,19.45,61.47,19.46z M61.38,23.79
		c0.45,0.02,0.61,0.28,0.58,0.68c-0.02,0.39-0.31,0.52-0.65,0.54c-0.38-0.08-0.68-0.26-0.65-0.67
		C60.68,23.93,60.98,23.78,61.38,23.79z M60.85,28.64c0.22,0.01,0.34,0.18,0.39,0.37c0.02,0.27-0.13,0.39-0.34,0.42
		c-0.26,0.04-0.33-0.15-0.34-0.37C60.55,28.85,60.58,28.64,60.85,28.64z M60.54,22.45c-0.01,0.45-0.42,0.53-0.74,0.56
		c-0.31,0.03-0.69-0.12-0.68-0.5c0.02-0.47,0.46-0.4,0.75-0.44C60.19,22.09,60.55,22.05,60.54,22.45z M59.35,19.74
		c0.26-0.01,0.4,0.17,0.42,0.42c-0.03,0.31-0.18,0.5-0.49,0.48c-0.23-0.02-0.43-0.15-0.43-0.43C58.86,19.89,59.08,19.75,59.35,19.74
		z M58.52,24.58c0.28,0.01,0.49,0.17,0.48,0.47c0,0.29-0.17,0.46-0.32,0.48c-0.45,0.03-0.65-0.14-0.67-0.42
		C57.99,24.8,58.19,24.57,58.52,24.58z M57.27,22.76c-0.36,0.02-0.62-0.13-0.65-0.5c-0.03-0.42,0.35-0.52,0.59-0.7
		c0.39,0.07,0.62,0.25,0.63,0.61C57.85,22.54,57.63,22.74,57.27,22.76z M57.03,17.09c0.42,0.03,0.67,0.26,0.72,0.63
		c0.04,0.4-0.22,0.65-0.6,0.67c-0.37,0.01-0.67-0.19-0.7-0.59C56.42,17.39,56.7,17.19,57.03,17.09z M55.72,14.82
		c0.35-0.02,0.69,0.11,0.72,0.54c0.04,0.47-0.33,0.52-0.68,0.62c-0.29-0.1-0.7-0.05-0.71-0.54C55.05,15,55.36,14.84,55.72,14.82z
		 M54.91,17.38c0.27-0.01,0.49,0.12,0.5,0.49c-0.02,0.3-0.22,0.45-0.54,0.44c-0.28-0.01-0.5-0.07-0.5-0.42
		C54.38,17.53,54.6,17.39,54.91,17.38z M53.95,12.6c0.33-0.02,0.48,0.1,0.56,0.39c-0.02,0.28-0.16,0.47-0.47,0.49
		c-0.29,0.02-0.52-0.06-0.52-0.4C53.51,12.79,53.58,12.61,53.95,12.6z M53.08,15.2c0.32,0.01,0.44,0.18,0.44,0.49
		c-0.01,0.33-0.27,0.47-0.49,0.48c-0.31,0.02-0.54-0.23-0.52-0.55C52.54,15.33,52.8,15.23,53.08,15.2z M52,12.97
		c0.37,0.05,0.55,0.24,0.53,0.57c-0.02,0.28-0.17,0.5-0.48,0.45c-0.33-0.05-0.59-0.26-0.57-0.61C51.51,13.11,51.76,12.97,52,12.97z
		 M51.23,52.13c0.31,0.02,0.63,0.01,0.94,0.06c0.28,0.04,0.48,0.25,0.47,0.53c-0.02,0.29-0.22,0.46-0.52,0.45
		c-0.54,0-1.09,0.07-1.6-0.21c-0.23-0.13-0.5-0.24-0.44-0.55c0.07-0.33,0.39-0.26,0.64-0.27c0.17-0.01,0.34,0,0.51,0
		C51.22,52.14,51.23,52.14,51.23,52.13z M28.99,57.72c-0.04,0.41-0.24,0.58-0.57,0.58c-0.39,0-1.31-0.7-1.28-1
		c0.02-0.31,0.26-0.53,0.51-0.44C28.17,57.04,28.73,57.2,28.99,57.72z M26.17,56.98c-0.03,0.42-0.32,0.7-0.73,0.65
		c-0.38-0.05-0.83-0.21-0.77-0.72c0.04-0.41,0.39-0.59,0.78-0.62C25.86,56.36,26.19,56.53,26.17,56.98z M37.04,8.77
		c-0.01-0.24,0.14-0.43,0.41-0.45c0.28-0.02,0.41,0.14,0.44,0.39c-0.02,0.28-0.13,0.45-0.41,0.48C37.18,9.21,37.06,9,37.04,8.77z
		 M47.94,56.38c0.4-0.02,0.79-0.01,1.19-0.01v-0.01c0.37,0,0.74-0.02,1.11,0c0.23,0.01,0.47,0.08,0.51,0.35
		c0.04,0.27-0.13,0.46-0.34,0.54c-0.86,0.29-1.74,0.3-2.59-0.01c-0.21-0.07-0.42-0.24-0.39-0.5C47.47,56.49,47.71,56.4,47.94,56.38z
		 M50.26,9.69c0.37,0.02,0.8,0.09,0.82,0.55c0.02,0.44-0.35,0.51-0.84,0.49c-0.28-0.04-0.63-0.19-0.65-0.62
		C49.56,9.66,49.95,9.67,50.26,9.69z M49.51,11.83c-0.02,0.28-0.18,0.43-0.48,0.45c-0.28,0.01-0.53-0.05-0.57-0.37
		c-0.04-0.28,0.08-0.49,0.41-0.5C49.17,11.41,49.45,11.44,49.51,11.83z M47.95,8.49c0.29,0.12,0.73,0.07,0.74,0.54
		c0.01,0.32-0.22,0.47-0.51,0.41c-0.36-0.08-0.77-0.21-0.81-0.64C47.34,8.42,47.71,8.53,47.95,8.49z M46.61,9.68
		c0.31,0.08,0.68,0.14,0.7,0.58c0.02,0.29-0.2,0.49-0.5,0.46c-0.36-0.03-0.67-0.23-0.72-0.61C46.04,9.77,46.29,9.67,46.61,9.68z
		 M44.94,7.26c0.33,0.01,0.59,0.14,0.67,0.53c-0.03,0.26-0.16,0.49-0.46,0.48c-0.34-0.01-0.57-0.22-0.6-0.59
		C44.52,7.41,44.66,7.25,44.94,7.26z M43.16,8.33c0.31,0.02,0.55,0.12,0.6,0.47c-0.03,0.37-0.27,0.4-0.55,0.39
		c-0.34-0.01-0.55-0.17-0.54-0.52C42.68,8.37,42.9,8.32,43.16,8.33z M41.47,6.25c0.34-0.02,0.51,0.17,0.54,0.47
		c-0.07,0.39-0.33,0.5-0.62,0.46c-0.26-0.04-0.6-0.06-0.59-0.46C40.81,6.28,41.16,6.27,41.47,6.25z M36.84,5.95
		c0.06-0.47,0.48-0.39,0.8-0.4c0.3-0.01,0.6,0.11,0.58,0.46c-0.04,0.45-0.4,0.47-0.78,0.44C37.15,6.41,36.79,6.39,36.84,5.95z
		 M35.66,8.18c-0.04,0.48-0.39,0.48-0.72,0.49c-0.38-0.02-0.72-0.09-0.71-0.55c0.01-0.4,0.24-0.68,0.64-0.6
		C35.21,7.59,35.72,7.58,35.66,8.18z M34.22,5.16c0.31-0.06,0.63,0.02,0.73,0.39c-0.04,0.39-0.28,0.56-0.63,0.58
		c-0.37,0.02-0.62-0.16-0.67-0.51C33.58,5.18,33.98,5.2,34.22,5.16z M33.2,8.99c0.25,0,0.45,0.08,0.45,0.37
		c0,0.34-0.23,0.48-0.44,0.52c-0.36,0.03-0.55-0.11-0.55-0.36C32.66,9.19,32.86,8.99,33.2,8.99z M31.96,7.83
		c-0.07,0.42-0.37,0.59-0.73,0.59c-0.32,0.01-0.64-0.13-0.62-0.53c0.02-0.43,0.35-0.55,0.71-0.58C31.67,7.29,31.92,7.45,31.96,7.83z
		 M30.53,5.5c0.31-0.02,0.54,0.13,0.62,0.53c-0.23,0.27-0.54,0.4-0.92,0.4c-0.26,0-0.45-0.13-0.44-0.41
		C29.82,5.55,30.19,5.51,30.53,5.5z M28.65,8.28c0.01,0.31-0.14,0.44-0.4,0.44c-0.26,0-0.44-0.14-0.45-0.4
		c0-0.23,0.18-0.32,0.39-0.36C28.47,7.91,28.61,8.04,28.65,8.28z M27.55,6.04c0.23,0,0.54,0.07,0.48,0.33
		c-0.08,0.38-0.4,0.59-0.82,0.6c-0.29,0.04-0.42-0.11-0.38-0.38C26.88,6.16,27.18,6.04,27.55,6.04z M23.19,7.79
		c0.12-0.4,0.46-0.61,0.78-0.68c0.37,0.01,0.53,0.16,0.5,0.43c-0.06,0.5-0.43,0.6-0.85,0.63C23.35,8.18,23.12,8.04,23.19,7.79z
		 M22.47,46.88c0.33,0.03,0.61,0.19,0.6,0.58c0,0.37-0.22,0.55-0.58,0.58c-0.38-0.08-0.63-0.28-0.6-0.69
		C21.92,47.01,22.16,46.85,22.47,46.88z M22.1,60.21c0.07,0.04,0.15,0.06,0.34,0.13c-0.3,0.13-0.49,0.11-0.58-0.03
		C21.81,60.22,21.96,60.14,22.1,60.21z M20.83,8.79c0.35-0.07,0.47,0.06,0.54,0.36c-0.03,0.41-0.3,0.6-0.66,0.65
		c-0.27,0.04-0.54-0.02-0.54-0.38C20.18,9.02,20.45,8.87,20.83,8.79z M21.45,50.49c-0.02,0.32-0.14,0.62-0.53,0.62
		c-0.45,0.01-0.64-0.33-0.72-0.71c-0.08-0.36,0.18-0.53,0.49-0.53C21.09,49.85,21.42,49.98,21.45,50.49z M20.01,55.58
		c-0.07,0.39-0.29,0.58-0.66,0.52c-0.4-0.06-0.62-0.33-0.55-0.73c0.04-0.32,0.28-0.49,0.62-0.47
		C19.83,54.94,20.02,55.19,20.01,55.58z M19.3,52.03c-0.01,0.34-0.18,0.61-0.55,0.62c-0.4,0.01-0.62-0.27-0.63-0.64
		c-0.02-0.38,0.28-0.5,0.55-0.57C19.07,51.48,19.31,51.66,19.3,52.03z M18.36,10.4c0.28-0.05,0.5,0.05,0.57,0.39
		c-0.06,0.37-0.35,0.53-0.69,0.61c-0.26,0.06-0.56-0.01-0.55-0.33C17.72,10.68,17.99,10.46,18.36,10.4z M15.91,28.08
		c0.47,0.03,0.59,0.37,0.65,0.6c0.03,0.52-0.22,0.7-0.52,0.68c-0.42-0.03-0.67-0.34-0.67-0.75C15.38,28.3,15.56,28.06,15.91,28.08z
		 M14.65,34.35c0.07,0.19-0.09,0.3-0.29,0.3c-0.5-0.01-0.77-0.29-0.89-0.74c-0.07-0.24,0.12-0.34,0.29-0.42
		C14.24,33.63,14.5,33.94,14.65,34.35z M13.79,32.4c-0.02-0.19,0.07-0.34,0.28-0.34c0.35,0.01,0.45,0.29,0.58,0.53
		c-0.02,0.23-0.16,0.33-0.35,0.31C14.02,32.86,13.83,32.69,13.79,32.4z M15.15,48.37c0.32,0.04,0.43,0.26,0.43,0.54
		c-0.01,0.28-0.17,0.49-0.47,0.51c-0.31,0.02-0.48-0.16-0.48-0.46C14.64,48.63,14.84,48.45,15.15,48.37z M15.37,31.42
		c-0.36-0.11-0.65-0.39-0.67-0.79c-0.01-0.19,0.21-0.35,0.44-0.28c0.34,0.09,0.58,0.32,0.7,0.66
		C15.73,31.22,15.64,31.51,15.37,31.42z M15.63,55.47c0.47,0.07,0.91,0.21,0.92,0.8c0.01,0.33-0.22,0.49-0.54,0.53
		c-0.48-0.11-0.84-0.38-0.92-0.87C15.04,55.59,15.3,55.42,15.63,55.47z M14.78,12.99c0.28-0.05,0.4,0.14,0.41,0.43
		c-0.01,0.35-0.18,0.57-0.56,0.59c-0.23,0.01-0.48-0.01-0.48-0.33C14.16,13.27,14.42,13.05,14.78,12.99z M13.6,16.01
		c0.26-0.02,0.39,0.15,0.4,0.41c0.01,0.35-0.22,0.53-0.53,0.56c-0.24,0.02-0.47-0.09-0.44-0.39C13.06,16.29,13.23,16.06,13.6,16.01z
		 M13.47,28.84c0.35,0.04,0.73,0.18,0.7,0.6c0.02,0.35-0.06,0.58-0.4,0.55c-0.43-0.03-0.65-0.36-0.75-0.7
		C12.91,28.99,13.25,28.81,13.47,28.84z M9.78,43c-0.47-0.03-0.5-0.49-0.54-0.84c-0.04-0.29,0.17-0.5,0.45-0.49
		c0.43,0.03,0.51,0.37,0.53,0.73C10.24,42.73,10.1,43.03,9.78,43z M10.21,47.88c0.02,0.33,0.02,0.57-0.26,0.65
		c-0.22,0.07-0.38-0.07-0.51-0.23c-0.02-0.02-0.04-0.04-0.06-0.07c-0.24-0.48-0.59-0.93-0.38-1.51c0.06-0.17,0.24-0.31,0.4-0.2
		C9.92,46.86,10.06,47.42,10.21,47.88z M10.56,30.22c-0.03-0.33,0.18-0.51,0.33-0.54c0.48-0.07,0.57,0.16,0.59,0.38
		c0.02,0.32-0.14,0.56-0.47,0.58C10.74,30.65,10.58,30.44,10.56,30.22z M11.23,36.52c-0.03,0.21-0.08,0.39-0.24,0.47
		c-0.18,0.09-0.33-0.01-0.44-0.15c-0.11-0.14-0.22-0.27-0.29-0.42c-0.23-0.4-0.66-0.75-0.43-1.3c0.06-0.13,0.19-0.09,0.28-0.01
		C10.58,35.51,11.08,35.9,11.23,36.52z M9.74,16.62c0.33-0.47,0.81-0.78,1.39-0.88c0.19-0.03,0.29,0.15,0.29,0.35
		c0,0.35-1.09,1.11-1.44,0.99C9.74,17.01,9.62,16.79,9.74,16.62z M9.7,32.01c0.35-0.02,0.5,0.18,0.52,0.47
		c0.01,0.38-0.14,0.59-0.48,0.62c-0.33,0.03-0.45-0.2-0.46-0.47C9.27,32.35,9.32,32.04,9.7,32.01z M9.57,37.59
		c0.5-0.01,0.5,0.47,0.58,0.8c0.07,0.29-0.17,0.44-0.45,0.53c-0.42-0.08-0.46-0.45-0.51-0.76C9.15,37.92,9.31,37.6,9.57,37.59z
		 M8.84,45.26c-0.59-0.07-0.63-0.56-0.7-0.92c-0.01-0.39,0.09-0.79,0.38-0.73c0.56,0.13,0.53,0.73,0.65,1.17
		C9.22,45.02,9.13,45.29,8.84,45.26z M7.59,33.75c0.33-0.03,0.55,0.1,0.56,0.48c-0.01,0.37-0.18,0.68-0.58,0.69
		c-0.32,0.02-0.53-0.22-0.53-0.54C7.02,34.03,7.21,33.79,7.59,33.75z M6.91,31.37c-0.39,0.01-0.46-0.28-0.48-0.57
		c-0.03-0.3,0.15-0.52,0.43-0.53c0.36-0.01,0.44,0.29,0.46,0.6C7.35,31.18,7.24,31.36,6.91,31.37z M7.48,38.44
		c0.31-0.03,0.4,0.24,0.47,0.48c-0.01,0.31-0.12,0.55-0.43,0.55c-0.25,0-0.4-0.18-0.42-0.45C7.1,38.73,7.19,38.47,7.48,38.44z
		 M7.9,40.83c0.47-0.01,0.5,0.42,0.55,0.73c0.07,0.35-0.12,0.65-0.49,0.67c-0.46,0.02-0.49-0.38-0.53-0.6
		C7.43,41.16,7.49,40.84,7.9,40.83z M9.01,36.19c-0.07,0.32-0.2,0.57-0.55,0.54c-0.4-0.04-0.49-0.34-0.48-0.68
		c0.01-0.31,0.21-0.5,0.49-0.49C8.84,35.56,8.95,35.87,9.01,36.19z M8.34,27.71c0.37,0.01,0.46,0.3,0.47,0.58
		c0,0.26-0.09,0.5-0.45,0.48c-0.37-0.01-0.47-0.27-0.47-0.57C7.9,27.94,8.02,27.7,8.34,27.71z M7.42,25.34
		c0.39,0.03,0.54,0.25,0.57,0.58c-0.02,0.31-0.11,0.59-0.42,0.57C7.16,26.45,7.02,26.1,7,25.75C6.99,25.5,7.11,25.32,7.42,25.34z
		 M7.02,28.6c0.03,0.24-0.01,0.58-0.37,0.52c-0.52-0.08-0.43-0.58-0.54-0.9c0.03-0.28,0-0.64,0.33-0.62C7,27.66,6.97,28.2,7.02,28.6
		z M5.88,25.23c0.36,0.02,0.43,0.32,0.46,0.64c-0.03,0.27-0.16,0.5-0.46,0.49c-0.35-0.02-0.44-0.34-0.45-0.62
		C5.41,25.46,5.57,25.21,5.88,25.23z M4.82,23.28c0.4,0.06,0.52,0.39,0.57,0.73c0.04,0.27-0.1,0.43-0.38,0.47
		c-0.43-0.12-0.47-0.52-0.54-0.87C4.41,23.37,4.59,23.25,4.82,23.28z M4.59,29.48c-0.03-0.32,0.08-0.65,0.47-0.69
		c0.45-0.04,0.47,0.31,0.5,0.55c0.02,0.42-0.06,0.75-0.44,0.79C4.69,30.17,4.62,29.78,4.59,29.48z M4.94,32.02
		C4.93,31.7,5,31.13,5.37,31.24c0.63,0.18,0.33,0.93,0.54,1.33c-0.01,0.31-0.04,0.54-0.37,0.5C4.87,33,4.97,32.45,4.94,32.02z
		 M5.29,35.8c-0.01-0.32,0.04-0.8,0.47-0.78c0.42,0.01,0.68,0.35,0.65,0.83c-0.02,0.39-0.16,0.8-0.59,0.79
		C5.35,36.64,5.3,36.16,5.29,35.8z M5.57,40.22c-0.03-0.42-0.02-0.85-0.01-1.28c0.01-0.26,0.16-0.47,0.39-0.48
		c0.27-0.02,0.36,0.24,0.39,0.47c0.04,0.28,0.05,0.57,0.07,0.81c0,0.15,0,0.27-0.01,0.38c-0.01,0.29,0.02,0.64-0.34,0.68
		C5.72,40.83,5.6,40.5,5.57,40.22z M6.63,45.64c-0.14-0.69-0.47-1.35-0.42-2.09c0.02-0.35,0.16-0.64,0.53-0.67
		c0.35-0.03,0.35,0.31,0.41,0.55c0.16,0.67,0.29,1.34,0.42,1.9c0,0.42-0.1,0.7-0.43,0.77C6.82,46.18,6.68,45.87,6.63,45.64z
		 M7.89,48.83c-0.64-0.12-0.6-0.8-0.77-1.26c-0.11-0.31,0.09-0.6,0.47-0.74c0.6,0.26,0.58,0.89,0.77,1.39
		C8.53,48.61,8.12,48.87,7.89,48.83z M11.26,54.96c-0.23,0.19-0.43,0.09-0.6-0.08c-0.83-0.78-1.33-1.79-1.8-2.79
		c-0.19-0.4-0.43-0.82-0.42-1.17c-0.01-0.39-0.02-0.67,0.29-0.77c0.33-0.1,0.45,0.19,0.56,0.4c0.65,1.3,1.23,2.65,2,3.88
		C11.42,54.62,11.46,54.8,11.26,54.96z M10.91,51.27c-0.38-0.02-0.43-0.37-0.42-0.64c0.01-0.25-0.03-0.65,0.37-0.64
		c0.43,0.01,0.48,0.41,0.56,0.67C11.4,51.06,11.24,51.29,10.91,51.27z M11,46.68c-0.67-0.07-0.63-0.7-0.8-1.03
		c-0.01-0.42,0.02-0.75,0.42-0.7c0.65,0.09,0.75,0.69,0.88,1.19C11.58,46.47,11.3,46.71,11,46.68z M11.17,41.35
		c-0.49-0.07-0.68-0.47-0.73-0.9c-0.04-0.31,0.13-0.61,0.47-0.58c0.5,0.05,0.61,0.5,0.69,0.82C11.6,41.1,11.55,41.41,11.17,41.35z
		 M11.57,34.87c-0.39-0.07-0.55-0.32-0.55-0.67c-0.01-0.21-0.07-0.48,0.33-0.45c0.41,0.04,0.52,0.31,0.57,0.63
		C11.95,34.65,11.85,34.84,11.57,34.87z M11.83,15.19c0.06-0.3,0.21-0.57,0.53-0.57c0.21-0.01,0.54,0.04,0.5,0.41
		c-0.03,0.32-0.21,0.58-0.51,0.58C12.14,15.62,11.83,15.54,11.83,15.19z M12.98,32.91c-0.05,0.25-0.18,0.37-0.43,0.31
		c-0.35-0.09-0.49-0.33-0.47-0.7c0.02-0.28,0.15-0.35,0.38-0.29C12.81,32.32,12.98,32.56,12.98,32.91z M12.58,35.36
		c0.34,0.08,0.61,0.29,0.63,0.72c-0.04,0.23-0.17,0.42-0.45,0.36c-0.36-0.07-0.64-0.28-0.68-0.66
		C12.06,35.47,12.3,35.29,12.58,35.36z M12.11,49.25c0.03-0.34,0.2-0.59,0.55-0.6c0.39,0.04,0.52,0.28,0.51,0.59
		c-0.01,0.39-0.23,0.53-0.62,0.5C12.23,49.73,12.09,49.54,12.11,49.25z M12.76,52.64c0.34,0.01,0.45,0.27,0.52,0.55
		c-0.07,0.32-0.23,0.53-0.57,0.51c-0.29-0.02-0.45-0.21-0.44-0.5C12.29,52.89,12.39,52.64,12.76,52.64z M13.5,57.57
		c-0.27,0.03-1.19-0.83-1.21-1.13c-0.02-0.33,0.21-0.45,0.48-0.5c0.34-0.05,1.2,0.75,1.21,1.1C13.92,57.31,13.8,57.53,13.5,57.57z
		 M14.32,51.76c-0.01-0.4,0.19-0.65,0.61-0.64c0.38,0.01,0.66,0.23,0.67,0.62c0.01,0.38-0.23,0.62-0.67,0.65
		C14.58,52.36,14.33,52.16,14.32,51.76z M15.98,59.73c-0.6-0.02-1.36-0.68-1.3-1.14c0.06-0.35,0.32-0.43,0.64-0.42
		c0.52,0.02,1.26,0.65,1.26,1.07C16.58,59.65,16.37,59.81,15.98,59.73z M16.98,54.12c-0.34-0.04-0.67-0.22-0.64-0.65
		c0.02-0.34,0.22-0.51,0.77-0.47c0.19,0.02,0.46,0.22,0.44,0.63C17.54,53.94,17.3,54.17,16.98,54.12z M18.61,61.55
		c-0.29,0.04-1.19-0.69-1.21-0.96c-0.03-0.39,0.31-0.34,0.56-0.46c0.36,0.29,1.03,0.22,1.1,0.88
		C19.08,61.23,18.91,61.51,18.61,61.55z M18.4,58.23c-0.18-0.35-0.03-0.6,0.54-0.57c0.44,0.13,0.93,0.43,1.28,0.86
		c0.31,0.37-0.01,0.69-0.4,0.66C19.2,59.13,18.69,58.78,18.4,58.23z M22.77,63.15c-0.12,0.19-0.31,0.31-0.5,0.21
		c-0.69-0.37-1.38-0.77-2.06-1.16c-0.12-0.07-0.23-0.2-0.12-0.35c0.1-0.14,0.24-0.24,0.52-0.23c0.64,0.31,1.35,0.63,2.05,1
		C22.82,62.71,22.9,62.94,22.77,63.15z M22.89,59.12c-0.37-0.01-0.7-0.17-0.68-0.6c0.02-0.41,0.24-0.68,0.7-0.69
		c0.43-0.01,0.7,0.17,0.8,0.57C23.64,58.89,23.35,59.13,22.89,59.12z M24.79,64.42c-0.32-0.03-0.59-0.08-0.83-0.24
		c-0.28-0.19-0.49-0.44-0.37-0.77c0.17-0.43,0.5-0.21,0.79-0.11c0.19,0.07,0.37,0.13,0.56,0.18c0.34,0.1,0.74,0.31,0.69,0.63
		C25.57,64.51,25.05,64.29,24.79,64.42z M25.83,60.26c-0.57,0.01-0.91-0.16-0.97-0.64c-0.04-0.36,0.16-0.63,0.54-0.6
		c0.42,0.04,0.9,0.16,0.96,0.66C26.42,60.07,26.13,60.3,25.83,60.26z M27.34,65.37c-0.48-0.05-1.04-0.15-1.09-0.73
		c-0.04-0.4,0.44-0.41,0.76-0.47c0.42,0.06,0.9,0.04,0.97,0.61C28.02,65.21,27.73,65.41,27.34,65.37z M28.63,63.14
		c-0.47,0.01-0.87-0.21-0.87-0.73c0-0.43,0.35-0.6,0.77-0.63c0.48-0.03,0.73,0.22,0.82,0.63C29.32,62.9,29.04,63.12,28.63,63.14z
		 M29.68,60.98c-0.45-0.06-0.9-0.26-0.91-0.83c-0.01-0.56,0.49-0.43,0.79-0.52c0.45,0.07,0.92,0.12,0.93,0.69
		C30.49,60.83,30.11,61.04,29.68,60.98z M32.09,66.24c-0.48-0.04-1.04-0.03-1.05-0.68c-0.01-0.56,0.48-0.53,0.96-0.52
		c0.35,0.03,0.92-0.03,0.93,0.62C32.94,66.16,32.53,66.27,32.09,66.24z M32.89,60.45c-0.08-0.46,0.24-0.44,0.53-0.42
		c0.29,0.02,0.67-0.06,0.69,0.46c-0.1,0.25-0.19,0.56-0.57,0.59C33.1,61.11,32.96,60.82,32.89,60.45z M34.06,64.08
		c-0.35-0.06-0.69-0.11-0.69-0.59c0.01-0.46,0.33-0.6,0.67-0.64c0.42-0.04,0.63,0.26,0.63,0.65C34.66,63.87,34.43,64.07,34.06,64.08
		z M38.35,63.73c-0.5-0.03-0.93-0.14-0.91-0.65c0.02-0.5,0.49-0.6,0.89-0.61c0.42-0.01,0.75,0.21,0.74,0.64
		C39.06,63.58,38.66,63.68,38.35,63.73z M39.85,60.7c0.01-0.5,0.35-0.65,0.82-0.64c0.43,0.01,0.78,0.17,0.74,0.62
		c-0.04,0.47-0.44,0.62-0.87,0.6C40.11,61.31,39.85,61.1,39.85,60.7z M41.65,66.74c-0.4,0.04-0.64-0.22-0.68-0.6
		c-0.04-0.55,0.42-0.58,0.85-0.68c0.35,0.02,0.6,0.23,0.59,0.63C42.41,66.56,42.03,66.7,41.65,66.74z M42.91,63.37
		c-0.38,0.02-0.56-0.22-0.58-0.57c-0.03-0.38,0.22-0.58,0.55-0.62c0.38-0.04,0.54,0.23,0.6,0.57
		C43.41,63.06,43.29,63.34,42.91,63.37z M43.39,55.7c0.02-0.33,0.27-0.47,0.64-0.46c0.35,0.03,0.65,0.25,0.65,0.62
		c0,0.31-0.31,0.43-0.63,0.43C43.65,56.28,43.36,56.13,43.39,55.7z M45.39,65.84c-0.19-0.01-0.28-0.18-0.24-0.37
		c0.05-0.23,0.25-0.27,0.45-0.25c0.19,0.02,0.29,0.12,0.32,0.32C45.83,65.78,45.6,65.84,45.39,65.84z M44.96,61.11
		c-0.38,0.06-0.66-0.21-0.67-0.67c-0.01-0.45,0.34-0.67,0.74-0.65c0.43,0.01,0.91,0.13,0.9,0.68
		C45.92,60.97,45.51,61.08,44.96,61.11z M47.72,66.06c-0.4,0.02-0.69-0.21-0.7-0.58c-0.01-0.39,0.29-0.59,0.68-0.61
		c0.4-0.02,0.65,0.16,0.71,0.57C48.36,65.84,48.1,66.04,47.72,66.06z M50.05,61.71c-0.12,0.59-0.67,0.64-1.13,0.74
		c-0.3,0.06-0.53-0.17-0.5-0.45c0.07-0.62,0.62-0.65,1-0.75C49.81,61.25,50.14,61.31,50.05,61.71z M49.69,59.86
		c-0.45-0.02-0.87-0.21-0.82-0.77c0.04-0.5,0.44-0.62,0.88-0.6c0.43,0.02,0.67,0.26,0.68,0.7C50.39,59.65,50.1,59.89,49.69,59.86z
		 M50.78,64.77c-0.34-0.03-0.59-0.18-0.56-0.53c0.03-0.42,0.32-0.58,0.72-0.57c0.34,0.02,0.54,0.18,0.54,0.53
		C51.47,64.68,51.1,64.7,50.78,64.77z M52.11,60.52c0.06-0.51,0.45-0.6,0.64-0.63c0.54-0.03,0.82,0.03,0.78,0.44
		c-0.04,0.49-0.4,0.67-0.83,0.7C52.36,61.06,52.07,60.95,52.11,60.52z M53.18,63.67c-0.33-0.01-0.55-0.15-0.52-0.51
		c0.02-0.32,0.23-0.52,0.55-0.52c0.33,0,0.53,0.18,0.52,0.53C53.71,63.52,53.52,63.68,53.18,63.67z M54.09,53.3
		c-0.24,0.02-0.43-0.13-0.45-0.39c-0.02-0.31,0.18-0.47,0.47-0.45c0.2,0.01,0.49-0.01,0.47,0.14C54.54,53.1,54.36,53.27,54.09,53.3z
		 M55.39,61.95c-0.3,0.01-0.53-0.1-0.49-0.43c0.08-0.66,0.61-0.82,1.07-0.95c0.33,0.01,0.6,0,0.63,0.37
		C56.63,61.33,55.89,61.95,55.39,61.95z M56.54,58.33c-0.17,0.01-0.34,0.01-0.51,0.01h-0.52c-0.33,0.01-0.55-0.16-0.61-0.48
		c-0.06-0.34,0.14-0.49,0.46-0.6c0.39-0.13,0.79-0.15,1.18-0.12c0.33,0.03,0.74,0.05,0.73,0.52C57.26,58.08,56.96,58.31,56.54,58.33
		z M57.97,60.25c-0.32,0.03-0.51-0.03-0.55-0.33c-0.04-0.37,0.65-0.87,1.2-0.89c0.31-0.02,0.44,0.15,0.42,0.4
		C59,60.15,58.35,60.07,57.97,60.25z M59.04,57.86c-0.31-0.04-0.7,0.05-0.64-0.39c0.11-0.72,0.76-0.67,1.26-0.75
		c0.27-0.04,0.75-0.01,0.69,0.41C60.25,57.9,59.48,57.65,59.04,57.86z M59.84,53.36c-0.33-0.02-0.65-0.06-0.67-0.48
		c-0.01-0.55,0.42-0.53,0.77-0.54c0.32-0.01,0.78-0.1,0.75,0.4C60.68,53.23,60.22,53.29,59.84,53.36z M61.34,55.41
		c-0.33,0.03-0.72,0-0.74-0.38c-0.02-0.47,0.35-0.67,0.79-0.72c0.32-0.03,0.57,0.03,0.68,0.4C61.92,55.02,61.78,55.37,61.34,55.41z
		 M62.3,51.2c-0.19,0.02-0.53,0.02-0.55-0.35c-0.03-0.38,0.14-0.58,0.52-0.62c0.31-0.02,0.56,0.04,0.66,0.37
		C62.9,51,62.61,51.17,62.3,51.2z M63.68,53.34c-0.39,0.01-0.56-0.27-0.57-0.62c-0.01-0.37,0.17-0.6,0.57-0.59
		c0.36,0.01,0.57,0.2,0.66,0.53C64.29,53.08,64.08,53.33,63.68,53.34z M64.67,50.96c-0.44-0.01-0.69-0.24-0.66-0.69
		c0.04-0.47,0.42-0.6,0.78-0.6c0.34,0,0.68,0.13,0.68,0.59C65.35,50.65,65.14,50.97,64.67,50.96z M65.4,45.32
		c0.03-0.32,0.28-0.53,0.57-0.53c0.34,0.01,0.53,0.27,0.55,0.63c-0.05,0.31-0.27,0.53-0.56,0.51C65.66,45.91,65.37,45.69,65.4,45.32
		z M66.41,48.37c-0.37-0.04-0.6-0.24-0.59-0.6c0.01-0.29,0.16-0.59,0.51-0.57c0.31,0.02,0.61,0.16,0.63,0.55
		C66.96,48.11,66.76,48.31,66.41,48.37z M67.12,43.23c-0.37,0.01-0.65-0.13-0.63-0.52c0.03-0.46,0.4-0.57,0.8-0.61
		c0.3,0.03,0.61,0.11,0.58,0.48C67.84,43,67.54,43.21,67.12,43.23z M67.44,36.79c-0.28,0.06-0.56,0.06-0.84,0.09v-0.02
		c-0.17,0.02-0.34,0.07-0.5,0.06c-0.27-0.02-0.52-0.11-0.53-0.43c-0.01-0.26,0.16-0.43,0.4-0.47c0.44-0.08,0.89-0.14,1.34-0.18
		c0.3-0.03,0.59,0.02,0.63,0.39C67.99,36.58,67.74,36.74,67.44,36.79z"/>
	<path class="st1" d="M8.44,50.91c-0.01-0.39-0.02-0.67,0.29-0.77c0.33-0.1,0.45,0.19,0.56,0.4c0.65,1.3,1.23,2.64,2,3.88
		c0.12,0.19,0.16,0.37-0.03,0.53c-0.23,0.19-0.43,0.09-0.6-0.08c-0.83-0.78-1.32-1.78-1.8-2.79C8.66,51.68,8.43,51.27,8.44,50.91z"
		/>
	<path class="st1" d="M60.01,36.45c0.48,0,0.97-0.01,1.45,0c0.23,0.01,0.48,0.07,0.53,0.34c0.07,0.35-0.25,0.43-0.47,0.5
		c-0.5,0.17-1.01,0-1.52,0c-0.51-0.01-1.02-0.06-1.54-0.09c-0.27-0.01-0.58-0.06-0.6-0.35c-0.03-0.4,0.35-0.4,0.61-0.41
		c0.51-0.03,1.02-0.01,1.54-0.01C60.01,36.43,60.01,36.44,60.01,36.45z"/>
	<path class="st1" d="M49.13,56.37c0.37,0,0.74-0.01,1.11,0c0.23,0.01,0.47,0.07,0.51,0.35c0.04,0.26-0.13,0.46-0.34,0.53
		c-0.86,0.29-1.73,0.3-2.59,0c-0.21-0.07-0.42-0.25-0.39-0.5c0.03-0.27,0.28-0.36,0.51-0.37C48.34,56.36,48.74,56.38,49.13,56.37
		C49.13,56.37,49.13,56.37,49.13,56.37z"/>
	<path class="st1" d="M56.8,45.86c-0.01,0.31-0.18,0.5-0.48,0.49c-0.93-0.02-1.89,0.07-2.78-0.28c-0.23-0.09-0.41-0.18-0.39-0.48
		c0.02-0.35,0.27-0.31,0.49-0.32c0.4-0.01,0.8-0.01,1.08-0.01c0.63,0.06,1.14,0.09,1.65,0.14C56.62,45.44,56.8,45.58,56.8,45.86z"/>
	<path class="st1" d="M7.58,45.34c0,0.42-0.1,0.7-0.43,0.77c-0.33,0.07-0.47-0.25-0.52-0.47c-0.15-0.69-0.47-1.35-0.42-2.09
		c0.02-0.35,0.16-0.64,0.53-0.66c0.35-0.03,0.36,0.31,0.41,0.55C7.32,44.11,7.46,44.78,7.58,45.34z"/>
	<path class="st1" d="M61.98,32.05c-0.34,0-0.69,0.03-1.02-0.01c-0.23-0.03-0.42-0.17-0.42-0.45c0-0.28,0.15-0.41,0.41-0.45
		c0.74-0.11,1.48-0.14,2.22-0.11c0.26,0.01,0.44,0.17,0.47,0.42c0.03,0.25-0.13,0.46-0.38,0.5c-0.42,0.07-0.85,0.1-1.27,0.14
		C61.98,32.07,61.98,32.06,61.98,32.05z"/>
	<path class="st1" d="M63.62,41.76c-0.44-0.11-1.2,0.37-1.27-0.36c-0.06-0.58,0.72-0.46,1.16-0.56c0.38-0.09,0.79-0.1,1.18-0.16
		c0.33-0.05,0.59,0.06,0.66,0.38c0.07,0.33-0.24,0.44-0.47,0.5C64.47,41.66,64.05,41.7,63.62,41.76z"/>
	<path class="st1" d="M59.99,38.68c0.37,0.08,1.12-0.34,1.17,0.43c0.05,0.76-0.75,0.49-1.19,0.6c-0.32,0.08-0.68,0.14-1.01,0.02
		c-0.27-0.1-0.53-0.23-0.47-0.6c0.05-0.34,0.3-0.37,0.57-0.38C59.34,38.72,59.63,38.7,59.99,38.68z"/>
	<path class="st1" d="M56.02,58.34c-0.17,0-0.34,0-0.51,0c-0.33,0-0.55-0.16-0.61-0.48c-0.06-0.34,0.15-0.5,0.46-0.6
		c0.39-0.13,0.79-0.15,1.18-0.11c0.33,0.03,0.75,0.05,0.73,0.51c-0.01,0.42-0.31,0.65-0.74,0.67
		C56.37,58.35,56.19,58.34,56.02,58.34z"/>
	<path class="st1" d="M20.62,61.63c0.64,0.3,1.35,0.63,2.05,1c0.16,0.08,0.23,0.32,0.1,0.53c-0.12,0.19-0.31,0.31-0.5,0.21
		c-0.7-0.37-1.38-0.77-2.06-1.16c-0.12-0.07-0.23-0.2-0.12-0.35C20.19,61.72,20.33,61.62,20.62,61.63z"/>
	<path class="st1" d="M51.23,52.14c0.31,0.02,0.63,0.01,0.94,0.05c0.28,0.04,0.48,0.25,0.46,0.53c-0.02,0.29-0.22,0.46-0.52,0.46
		c-0.54,0-1.09,0.07-1.59-0.21c-0.23-0.13-0.51-0.23-0.44-0.55c0.07-0.33,0.39-0.26,0.64-0.27c0.17-0.01,0.34,0,0.51,0
		C51.23,52.14,51.23,52.14,51.23,52.14z"/>
	<path class="st1" d="M66.6,36.87c-0.17,0.02-0.34,0.07-0.5,0.06c-0.27-0.02-0.52-0.11-0.53-0.43c-0.01-0.26,0.17-0.43,0.41-0.47
		c0.44-0.08,0.89-0.14,1.34-0.18c0.3-0.03,0.59,0.02,0.63,0.39c0.04,0.35-0.2,0.51-0.5,0.57c-0.28,0.05-0.56,0.06-0.84,0.09
		C66.6,36.88,66.6,36.87,66.6,36.87z"/>
	<path class="st1" d="M15.98,59.73c-0.6-0.02-1.37-0.68-1.3-1.14c0.05-0.35,0.32-0.43,0.64-0.41c0.51,0.02,1.26,0.65,1.26,1.07
		C16.58,59.65,16.37,59.81,15.98,59.73z"/>
	<path class="st1" d="M59.77,40.89c0.23,0.02,0.46,0.03,0.68,0.07c0.24,0.05,0.44,0.21,0.43,0.46c-0.02,0.27-0.19,0.47-0.5,0.49
		c-0.2,0.01-0.4,0.05-0.6,0.01c-0.44-0.08-1.15,0.15-1.14-0.54C58.66,40.76,59.37,41.03,59.77,40.89z"/>
	<path class="st1" d="M18.94,57.66c0.44,0.13,0.93,0.44,1.28,0.86c0.3,0.37-0.01,0.69-0.4,0.66c-0.62-0.05-1.13-0.39-1.42-0.95
		C18.22,57.88,18.37,57.62,18.94,57.66z"/>
	<path class="st1" d="M63.03,39.79c-0.43-0.01-0.88,0.08-0.86-0.44c0.03-0.79,0.74-0.67,1.23-0.76c0.37-0.07,0.81-0.01,0.78,0.52
		C64.13,39.97,63.38,39.62,63.03,39.79z"/>
	<path class="st1" d="M62.22,44.06c-0.47,0-0.84-0.15-0.77-0.56c0.12-0.71,0.8-0.49,1.26-0.57c0.36-0.06,0.79,0.02,0.74,0.47
		C63.36,44.2,62.56,43.78,62.22,44.06z"/>
	<path class="st1" d="M32.01,65.04c0.36,0.03,0.91-0.03,0.93,0.61c0.01,0.51-0.4,0.63-0.84,0.59c-0.47-0.04-1.04-0.03-1.05-0.68
		C31.03,65,31.52,65.03,32.01,65.04z"/>
	<path class="st1" d="M29.56,59.63c0.45,0.08,0.92,0.13,0.92,0.7c0,0.5-0.37,0.71-0.8,0.65c-0.46-0.06-0.91-0.26-0.91-0.83
		C28.76,59.6,29.25,59.73,29.56,59.63z"/>
	<path class="st1" d="M58.73,51.47c-0.2,0.02-0.66,0.01-0.72-0.44c-0.06-0.5,0.46-0.54,0.8-0.56c0.47-0.04,1.21-0.28,1.25,0.43
		C60.1,51.52,59.4,51.45,58.73,51.47z"/>
	<path class="st1" d="M6.42,39.73c0,0.15,0,0.27,0,0.38c-0.01,0.28,0.02,0.63-0.35,0.67c-0.35,0.04-0.47-0.29-0.5-0.57
		c-0.03-0.42-0.02-0.85-0.01-1.27c0-0.25,0.16-0.47,0.39-0.48c0.27-0.02,0.36,0.24,0.4,0.47C6.39,39.2,6.4,39.49,6.42,39.73z"/>
	<path class="st1" d="M24.79,64.42c-0.31-0.04-0.58-0.08-0.83-0.25c-0.28-0.19-0.49-0.44-0.37-0.77c0.17-0.43,0.5-0.21,0.79-0.11
		c0.19,0.07,0.37,0.13,0.56,0.18c0.35,0.1,0.74,0.31,0.69,0.63C25.57,64.51,25.05,64.29,24.79,64.42z"/>
	<path class="st1" d="M59.04,57.86c-0.31-0.04-0.71,0.05-0.64-0.39c0.11-0.72,0.76-0.67,1.26-0.75c0.27-0.04,0.76-0.01,0.69,0.41
		C60.25,57.9,59.48,57.65,59.04,57.86z"/>
	<path class="st1" d="M28.99,57.73c-0.04,0.41-0.24,0.58-0.57,0.58c-0.39,0-1.31-0.71-1.28-1c0.02-0.3,0.26-0.52,0.51-0.44
		C28.17,57.03,28.73,57.2,28.99,57.73z"/>
	<path class="st1" d="M44.96,61.1c-0.39,0.06-0.66-0.2-0.67-0.67c-0.01-0.45,0.34-0.66,0.73-0.65c0.43,0.02,0.91,0.14,0.9,0.69
		C45.92,60.97,45.51,61.08,44.96,61.1z"/>
	<path class="st1" d="M52.15,54.21c0.42-0.03,0.77,0.08,0.8,0.56c0.03,0.46-0.32,0.59-0.68,0.56c-0.4-0.03-1,0.08-1.04-0.48
		C51.17,54.31,51.7,54.24,52.15,54.21z"/>
	<path class="st1" d="M57.83,28.38c0.43,0.03,0.84,0.14,0.83,0.66c-0.01,0.46-0.31,0.78-0.77,0.75c-0.43-0.03-0.73-0.32-0.77-0.77
		C57.07,28.51,57.41,28.39,57.83,28.38z"/>
	<path class="st1" d="M7.6,46.82c0.6,0.25,0.58,0.89,0.77,1.38c0.15,0.4-0.26,0.67-0.48,0.63c-0.64-0.12-0.6-0.8-0.76-1.27
		C7.02,47.26,7.22,46.96,7.6,46.82z"/>
	<path class="st1" d="M29.34,62.41c-0.03,0.49-0.3,0.72-0.71,0.73c-0.47,0.01-0.87-0.21-0.87-0.73c0-0.44,0.35-0.61,0.76-0.63
		C29,61.74,29.25,62,29.34,62.41z"/>
	<path class="st1" d="M56.01,19.5c0.42,0.04,0.76,0.25,0.74,0.67c-0.03,0.5-0.46,0.67-0.91,0.7c-0.41,0.03-0.68-0.24-0.69-0.6
		C55.15,19.75,55.55,19.56,56.01,19.5z"/>
	<path class="st1" d="M10.21,47.88c0.02,0.33,0.02,0.57-0.26,0.65c-0.21,0.06-0.38-0.07-0.51-0.23c-0.02-0.02-0.04-0.04-0.05-0.07
		c-0.24-0.48-0.59-0.93-0.38-1.52c0.06-0.17,0.24-0.31,0.41-0.2C9.92,46.86,10.06,47.42,10.21,47.88z"/>
	<path class="st1" d="M50.43,59.2c-0.04,0.45-0.32,0.69-0.73,0.67c-0.45-0.02-0.87-0.21-0.82-0.77c0.04-0.5,0.44-0.62,0.87-0.6
		C50.18,58.51,50.42,58.75,50.43,59.2z"/>
	<path class="st1" d="M27,64.17c0.42,0.06,0.91,0.04,0.97,0.61c0.05,0.43-0.25,0.63-0.64,0.59c-0.48-0.05-1.04-0.15-1.1-0.72
		C26.21,64.24,26.68,64.24,27,64.17z"/>
	<path class="st1" d="M55.97,60.57c0.33,0.01,0.6,0,0.63,0.37c0.03,0.4-0.71,1.02-1.21,1.02c-0.3,0-0.53-0.1-0.49-0.43
		C54.98,60.86,55.51,60.71,55.97,60.57z"/>
	<path class="st1" d="M38.35,63.73c-0.5-0.03-0.93-0.14-0.91-0.65c0.02-0.49,0.49-0.6,0.9-0.61c0.41-0.01,0.75,0.2,0.74,0.64
		C39.06,63.58,38.66,63.68,38.35,63.73z"/>
	<path class="st1" d="M11.23,36.52c-0.04,0.21-0.08,0.39-0.24,0.47c-0.18,0.09-0.33,0-0.44-0.15c-0.1-0.14-0.21-0.27-0.29-0.42
		c-0.23-0.41-0.66-0.76-0.42-1.31c0.06-0.13,0.19-0.09,0.28-0.01C10.59,35.51,11.08,35.89,11.23,36.52z"/>
	<path class="st1" d="M10.2,45.65c-0.01-0.42,0.02-0.76,0.41-0.7c0.65,0.09,0.75,0.69,0.88,1.19c0.08,0.33-0.19,0.57-0.5,0.54
		C10.33,46.61,10.37,45.98,10.2,45.65z"/>
	<path class="st1" d="M13.97,57.04c-0.05,0.27-0.17,0.5-0.47,0.53c-0.27,0.04-1.19-0.83-1.21-1.13c-0.02-0.33,0.2-0.46,0.47-0.5
		C13.1,55.89,13.96,56.69,13.97,57.04z"/>
	<path class="st1" d="M17.96,60.13c0.36,0.28,1.03,0.22,1.1,0.87c0.03,0.23-0.14,0.5-0.45,0.55c-0.29,0.04-1.19-0.69-1.21-0.97
		C17.37,60.2,17.71,60.25,17.96,60.13z"/>
	<path class="st1" d="M59.31,46.52c-0.33-0.13-0.94,0.2-0.95-0.41c0-0.68,0.68-0.56,1.12-0.63c0.43-0.06,0.75,0.19,0.72,0.63
		C60.16,46.69,59.64,46.42,59.31,46.52z"/>
	<path class="st1" d="M64.24,28.54c0.36-0.05,0.63,0.06,0.64,0.42c0,0.67-0.57,0.61-0.99,0.69c-0.35,0.07-0.67-0.1-0.66-0.48
		C63.24,28.47,63.87,28.68,64.24,28.54z"/>
	<path class="st1" d="M65.47,50.25c-0.12,0.4-0.33,0.72-0.81,0.71c-0.44-0.01-0.69-0.24-0.66-0.69c0.04-0.46,0.42-0.6,0.78-0.6
		C65.13,49.66,65.47,49.79,65.47,50.25z"/>
	<path class="st1" d="M40.54,61.27c-0.43,0.03-0.69-0.18-0.68-0.58c0.01-0.5,0.36-0.65,0.81-0.64c0.43,0.01,0.78,0.17,0.74,0.62
		C41.37,61.14,40.97,61.29,40.54,61.27z"/>
	<path class="st1" d="M25.45,56.29c0.41,0.07,0.75,0.24,0.72,0.69c-0.02,0.42-0.31,0.7-0.73,0.65c-0.38-0.05-0.83-0.2-0.77-0.72
		C24.71,56.5,25.06,56.32,25.45,56.29z"/>
	<path class="st1" d="M16,56.8c-0.48-0.11-0.84-0.37-0.92-0.87c-0.05-0.34,0.22-0.51,0.55-0.46c0.46,0.07,0.91,0.21,0.91,0.8
		C16.55,56.59,16.33,56.76,16,56.8z"/>
	<path class="st1" d="M41.82,65.46c0.35,0.03,0.61,0.24,0.59,0.64c-0.01,0.46-0.39,0.61-0.77,0.64c-0.4,0.04-0.65-0.22-0.68-0.6
		C40.93,65.59,41.39,65.56,41.82,65.46z"/>
	<path class="st1" d="M23.72,58.4c-0.08,0.49-0.37,0.74-0.83,0.72c-0.37-0.01-0.7-0.16-0.68-0.6c0.02-0.41,0.24-0.68,0.7-0.69
		C23.34,57.81,23.62,58,23.72,58.4z"/>
	<path class="st1" d="M25.83,60.26c-0.57,0.01-0.91-0.16-0.97-0.63c-0.05-0.36,0.16-0.63,0.54-0.6c0.42,0.04,0.9,0.15,0.97,0.66
		C26.42,60.07,26.13,60.3,25.83,60.26z"/>
	<path class="st1" d="M5.91,32.57c-0.01,0.31-0.04,0.54-0.37,0.51C4.87,33,4.97,32.45,4.94,32.03C4.93,31.7,5,31.13,5.36,31.24
		C5.99,31.41,5.69,32.16,5.91,32.57z"/>
	<path class="st1" d="M65.91,39.42c-0.46,0.04-0.75-0.04-0.75-0.41c0-0.52,0.4-0.67,0.82-0.66c0.27,0.01,0.72-0.1,0.71,0.38
		C66.67,39.29,66.2,39.36,65.91,39.42z"/>
	<path class="st1" d="M6.41,35.85c-0.02,0.39-0.16,0.8-0.59,0.8c-0.47,0-0.52-0.49-0.53-0.85c-0.01-0.32,0.03-0.8,0.47-0.78
		C6.17,35.03,6.44,35.37,6.41,35.85z"/>
	<path class="st1" d="M57.45,48.44c-0.06,0.45-0.36,0.61-0.77,0.64c-0.43,0.03-0.67-0.23-0.66-0.6c0.01-0.39,0.34-0.59,0.71-0.61
		C57.1,47.85,57.36,48.05,57.45,48.44z"/>
	<path class="st1" d="M49.42,61.25c0.39,0,0.71,0.06,0.63,0.46c-0.12,0.59-0.67,0.65-1.13,0.74c-0.3,0.06-0.53-0.17-0.5-0.45
		C48.49,61.38,49.04,61.35,49.42,61.25z"/>
	<path class="st1" d="M57.98,33.68c0.33,0.1,0.73,0.08,0.72,0.57c-0.01,0.45-0.26,0.69-0.69,0.68c-0.4-0.01-0.73-0.19-0.7-0.66
		C57.34,33.88,57.62,33.71,57.98,33.68z"/>
	<path class="st1" d="M11.41,16.09c0,0.36-1.09,1.11-1.44,1c-0.23-0.08-0.35-0.3-0.24-0.46c0.33-0.47,0.81-0.78,1.39-0.88
		C11.31,15.71,11.41,15.89,11.41,16.09z"/>
	<path class="st1" d="M35.66,8.18c-0.04,0.48-0.39,0.48-0.72,0.49c-0.38-0.02-0.72-0.09-0.71-0.55c0.01-0.4,0.24-0.68,0.64-0.6
		C35.21,7.59,35.72,7.58,35.66,8.18z"/>
	<path class="st1" d="M63.79,37.38c-0.39-0.02-0.75-0.16-0.73-0.56c0.01-0.43,0.42-0.58,0.8-0.63c0.37-0.05,0.63,0.16,0.65,0.52
		C64.53,37.17,64.17,37.31,63.79,37.38z"/>
	<path class="st1" d="M52.75,59.89c0.55-0.03,0.82,0.04,0.79,0.44c-0.05,0.49-0.4,0.67-0.83,0.71c-0.35,0.03-0.64-0.09-0.59-0.52
		C52.17,60.01,52.56,59.92,52.75,59.89z"/>
	<path class="st1" d="M14.93,52.4c-0.35-0.04-0.6-0.23-0.61-0.64c-0.01-0.4,0.19-0.65,0.61-0.64c0.38,0.01,0.66,0.23,0.67,0.62
		C15.61,52.13,15.36,52.36,14.93,52.4z"/>
	<path class="st1" d="M57.03,17.09c0.42,0.03,0.67,0.27,0.72,0.63c0.05,0.4-0.22,0.66-0.6,0.67c-0.37,0.01-0.67-0.18-0.7-0.59
		C56.42,17.39,56.7,17.2,57.03,17.09z"/>
	<path class="st1" d="M31.96,7.83c-0.07,0.42-0.37,0.59-0.73,0.59c-0.32,0.01-0.64-0.13-0.62-0.53c0.02-0.43,0.35-0.55,0.71-0.58
		C31.67,7.29,31.92,7.45,31.96,7.83z"/>
	<path class="st1" d="M57.97,60.25c-0.32,0.03-0.51-0.03-0.55-0.33c-0.05-0.37,0.65-0.87,1.2-0.9c0.31-0.01,0.44,0.16,0.43,0.4
		C59,60.15,58.35,60.07,57.97,60.25z"/>
	<path class="st1" d="M11.6,40.69c0.01,0.4-0.04,0.72-0.43,0.66c-0.49-0.07-0.68-0.47-0.73-0.91c-0.04-0.31,0.14-0.61,0.47-0.58
		C11.41,39.92,11.52,40.37,11.6,40.69z"/>
	<path class="st1" d="M55.76,50.04c0,0.43-0.32,0.57-0.71,0.57c-0.44-0.01-0.71-0.21-0.7-0.67c0-0.37,0.2-0.58,0.58-0.57
		C55.38,49.4,55.76,49.53,55.76,50.04z"/>
	<path class="st1" d="M56.37,53.26c-0.32-0.01-0.67-0.14-0.67-0.55c0-0.35,0.32-0.41,0.63-0.39c0.14,0.01,0.28-0.01,0.42,0
		c0.28,0.01,0.63-0.02,0.68,0.33c0.06,0.39-0.27,0.5-0.6,0.55C56.7,53.21,56.56,53.24,56.37,53.26z"/>
	<path class="st1" d="M34.06,64.08c-0.35-0.06-0.69-0.11-0.69-0.59c0-0.46,0.33-0.6,0.67-0.63c0.42-0.04,0.63,0.25,0.63,0.65
		C34.66,63.88,34.43,64.07,34.06,64.08z"/>
	<path class="st1" d="M56.02,41.85c-0.33-0.05-0.8,0.07-0.83-0.47c-0.02-0.41,0.31-0.56,0.64-0.49c0.35,0.08,0.91-0.06,0.95,0.5
		C56.82,41.89,56.36,41.81,56.02,41.85z"/>
	<path class="st1" d="M8.14,44.34c-0.01-0.39,0.09-0.79,0.38-0.73c0.56,0.12,0.53,0.73,0.64,1.17c0.06,0.23-0.04,0.51-0.33,0.47
		C8.25,45.19,8.21,44.7,8.14,44.34z"/>
	<path class="st1" d="M55.26,29.93c-0.02,0.48-0.26,0.62-0.62,0.61c-0.43-0.01-0.75-0.23-0.75-0.65c-0.01-0.42,0.37-0.55,0.73-0.52
		C54.98,29.41,55.29,29.57,55.26,29.93z"/>
	<path class="st1" d="M62.08,54.72c-0.16,0.31-0.29,0.66-0.73,0.69c-0.33,0.03-0.72,0-0.74-0.39c-0.02-0.47,0.35-0.67,0.79-0.72
		C61.71,54.28,61.96,54.35,62.08,54.72z"/>
	<path class="st1" d="M21.45,50.49c-0.02,0.32-0.14,0.62-0.53,0.62c-0.45,0.01-0.64-0.33-0.72-0.71c-0.08-0.36,0.18-0.53,0.49-0.53
		C21.09,49.85,21.42,49.98,21.45,50.49z"/>
	<path class="st1" d="M61.31,25.01c-0.37-0.08-0.68-0.26-0.65-0.66c0.02-0.41,0.32-0.56,0.72-0.55c0.45,0.02,0.61,0.28,0.58,0.67
		C61.94,24.86,61.66,24.98,61.31,25.01z"/>
	<path class="st1" d="M67.29,42.1c0.3,0.03,0.61,0.1,0.59,0.47c-0.03,0.42-0.33,0.64-0.76,0.65c-0.37,0.01-0.65-0.13-0.62-0.51
		C66.52,42.25,66.9,42.14,67.29,42.1z"/>
	<path class="st1" d="M55.76,15.98c-0.29-0.1-0.7-0.05-0.71-0.54c0-0.44,0.3-0.6,0.66-0.62c0.36-0.02,0.69,0.1,0.72,0.54
		C56.48,15.84,56.11,15.89,55.76,15.98z"/>
	<path class="st1" d="M65.09,32.73c-0.46,0.01-0.64-0.17-0.6-0.52c0.05-0.53,0.51-0.55,0.87-0.61c0.3-0.06,0.49,0.17,0.45,0.46
		C65.75,32.53,65.41,32.7,65.09,32.73z"/>
	<path class="st1" d="M48.41,65.43c-0.06,0.4-0.32,0.6-0.69,0.63c-0.4,0.02-0.69-0.21-0.7-0.59c-0.01-0.39,0.29-0.59,0.68-0.61
		C48.1,64.85,48.35,65.03,48.41,65.43z"/>
	<path class="st1" d="M59.84,53.36c-0.33-0.02-0.65-0.05-0.66-0.48c-0.01-0.55,0.41-0.53,0.77-0.54c0.32-0.01,0.78-0.1,0.76,0.41
		C60.68,53.23,60.22,53.29,59.84,53.36z"/>
	<path class="st1" d="M51.08,10.24c0.02,0.44-0.35,0.51-0.84,0.49c-0.28-0.04-0.63-0.19-0.65-0.62c-0.03-0.45,0.37-0.43,0.67-0.42
		C50.62,9.71,51.06,9.79,51.08,10.24z"/>
	<path class="st1" d="M7.45,41.63c-0.01-0.47,0.05-0.8,0.46-0.8c0.47-0.01,0.49,0.42,0.55,0.73c0.07,0.35-0.12,0.65-0.49,0.66
		C7.51,42.24,7.48,41.85,7.45,41.63z"/>
	<path class="st1" d="M20.01,55.58c-0.07,0.39-0.29,0.58-0.66,0.52c-0.4-0.06-0.61-0.33-0.55-0.73c0.05-0.32,0.29-0.49,0.62-0.46
		C19.83,54.94,20.01,55.19,20.01,55.58z"/>
	<path class="st1" d="M16.57,28.68c0.03,0.52-0.22,0.7-0.52,0.68c-0.42-0.03-0.67-0.34-0.67-0.75c-0.01-0.31,0.18-0.54,0.53-0.53
		C16.38,28.11,16.51,28.45,16.57,28.68z"/>
	<path class="st1" d="M62.64,33.14c-0.02,0.35-0.23,0.55-0.59,0.56c-0.37,0.01-0.59-0.24-0.61-0.58c-0.03-0.42,0.28-0.62,0.64-0.63
		C62.45,32.49,62.62,32.76,62.64,33.14z"/>
	<path class="st1" d="M63.55,45.77c-0.05,0.41-0.24,0.62-0.62,0.57c-0.35-0.04-0.58-0.27-0.54-0.62c0.04-0.34,0.27-0.59,0.63-0.56
		C63.37,45.18,63.53,45.45,63.55,45.77z"/>
	<path class="st1" d="M61.5,35.31c-0.07,0.36-0.27,0.52-0.64,0.52c-0.43-0.01-0.64-0.21-0.63-0.62c0.01-0.38,0.32-0.56,0.62-0.55
		C61.2,34.68,61.47,34.91,61.5,35.31z"/>
	<path class="st1" d="M57.21,21.55c0.39,0.07,0.62,0.25,0.63,0.61c0.01,0.37-0.2,0.57-0.57,0.59c-0.36,0.03-0.62-0.13-0.65-0.5
		C56.6,21.84,56.98,21.74,57.21,21.55z"/>
	<path class="st1" d="M56.88,54.54c0.44-0.01,0.67,0.2,0.69,0.55c0.02,0.37-0.16,0.66-0.6,0.68c-0.39,0.02-0.6-0.21-0.64-0.55
		C56.29,54.82,56.54,54.6,56.88,54.54z"/>
	<path class="st1" d="M6.11,28.22c0.03-0.28,0-0.65,0.33-0.62C7,27.66,6.97,28.2,7.02,28.6c0.03,0.24-0.01,0.58-0.38,0.52
		C6.14,29.03,6.22,28.54,6.11,28.22z"/>
	<path class="st1" d="M53.44,56.65c-0.02,0.35-0.23,0.56-0.58,0.6c-0.32,0.03-0.56-0.13-0.58-0.48c-0.02-0.38,0.2-0.6,0.56-0.61
		C53.13,56.15,53.4,56.26,53.44,56.65z"/>
	<path class="st1" d="M59.86,22.07c0.33,0.01,0.68-0.02,0.68,0.38c0,0.45-0.42,0.53-0.75,0.56c-0.31,0.03-0.69-0.12-0.68-0.5
		C59.13,22.04,59.58,22.11,59.86,22.07z"/>
	<path class="st1" d="M64.34,52.67c-0.05,0.41-0.26,0.66-0.66,0.67c-0.38,0.01-0.56-0.26-0.57-0.61c-0.01-0.37,0.17-0.6,0.57-0.59
		C64.04,52.15,64.26,52.34,64.34,52.67z"/>
	<path class="st1" d="M18.67,51.44c0.4,0.04,0.64,0.21,0.63,0.59c-0.01,0.34-0.18,0.61-0.55,0.62c-0.4,0.01-0.61-0.27-0.63-0.64
		C18.09,51.63,18.4,51.51,18.67,51.44z"/>
	<path class="st1" d="M50.78,64.77c-0.34-0.03-0.59-0.18-0.56-0.53c0.03-0.41,0.32-0.58,0.72-0.56c0.34,0.01,0.54,0.18,0.54,0.53
		C51.47,64.68,51.1,64.7,50.78,64.77z"/>
	<path class="st1" d="M23.08,47.46c0,0.37-0.22,0.55-0.58,0.58c-0.38-0.08-0.63-0.28-0.6-0.69c0.02-0.34,0.26-0.5,0.58-0.47
		C22.8,46.91,23.08,47.08,23.08,47.46z"/>
	<path class="st1" d="M17.11,53.01c0.19,0.02,0.46,0.22,0.44,0.62c-0.01,0.31-0.25,0.54-0.57,0.5c-0.34-0.05-0.66-0.22-0.64-0.65
		C16.36,53.13,16.56,52.97,17.11,53.01z"/>
	<path class="st1" d="M43.49,62.75c-0.08,0.32-0.21,0.6-0.58,0.62c-0.39,0.02-0.56-0.21-0.58-0.57c-0.02-0.38,0.23-0.58,0.56-0.62
		C43.26,62.14,43.42,62.41,43.49,62.75z"/>
	<path class="st1" d="M60.37,49.67c-0.37-0.03-0.6-0.25-0.61-0.6c-0.01-0.37,0.24-0.57,0.61-0.55c0.31,0.02,0.54,0.14,0.54,0.52
		C60.92,49.43,60.72,49.6,60.37,49.67z"/>
	<path class="st1" d="M44.03,55.24c0.35,0.03,0.65,0.25,0.65,0.62c0,0.3-0.31,0.43-0.63,0.43c-0.4-0.01-0.68-0.16-0.66-0.59
		C43.41,55.36,43.67,55.23,44.03,55.24z"/>
	<path class="st1" d="M65.22,33.77c0.43-0.02,0.7,0.05,0.69,0.44c-0.01,0.42-0.29,0.59-0.67,0.62c-0.33,0.03-0.58-0.08-0.58-0.45
		C64.66,33.95,64.96,33.81,65.22,33.77z"/>
	<path class="st1" d="M62.09,19.92c-0.14,0.32-0.42,0.5-0.76,0.52c-0.26,0.01-0.55-0.1-0.53-0.42c0.02-0.39,0.25-0.57,0.68-0.56
		C61.81,19.47,62.01,19.56,62.09,19.92z"/>
	<path class="st1" d="M66.41,48.37c-0.37-0.04-0.6-0.25-0.59-0.61c0.01-0.29,0.16-0.59,0.51-0.57c0.31,0.02,0.61,0.15,0.63,0.55
		C66.96,48.11,66.76,48.31,66.41,48.37z"/>
	<path class="st1" d="M10.21,42.41c0.02,0.33-0.11,0.62-0.44,0.59c-0.46-0.04-0.5-0.49-0.54-0.84c-0.04-0.29,0.17-0.5,0.45-0.49
		C10.12,41.7,10.2,42.05,10.21,42.41z"/>
	<path class="st1" d="M34.95,5.54c-0.04,0.39-0.28,0.56-0.63,0.58c-0.37,0.02-0.62-0.16-0.67-0.51c-0.07-0.43,0.33-0.41,0.57-0.45
		C34.53,5.1,34.85,5.17,34.95,5.54z"/>
	<path class="st1" d="M5.55,29.34c0.02,0.42-0.05,0.76-0.44,0.79c-0.43,0.04-0.49-0.35-0.52-0.65c-0.04-0.32,0.07-0.65,0.46-0.69
		C5.5,28.75,5.53,29.1,5.55,29.34z"/>
	<path class="st1" d="M8.15,34.24c-0.01,0.37-0.18,0.67-0.58,0.7c-0.32,0.02-0.53-0.23-0.54-0.55c-0.01-0.35,0.18-0.6,0.55-0.63
		C7.92,33.72,8.14,33.86,8.15,34.24z"/>
	<path class="st1" d="M66.74,41.36c-0.15-0.03-0.5-0.05-0.49-0.42c0.01-0.47,0.45-0.57,0.79-0.62c0.34-0.05,0.49,0.24,0.47,0.56
		C67.49,41.28,67.22,41.39,66.74,41.36z"/>
	<path class="st1" d="M12.67,48.65c0.39,0.04,0.52,0.29,0.51,0.6c-0.01,0.39-0.24,0.53-0.62,0.5c-0.33-0.03-0.47-0.21-0.44-0.5
		C12.15,48.92,12.31,48.66,12.67,48.65z"/>
	<path class="st1" d="M21.38,9.15c-0.03,0.41-0.3,0.6-0.66,0.65c-0.27,0.04-0.54-0.02-0.54-0.38c0.01-0.41,0.27-0.55,0.65-0.64
		C21.18,8.72,21.3,8.85,21.38,9.15z"/>
	<path class="st1" d="M63.73,48.37c-0.41,0.04-0.6-0.19-0.57-0.55c0.03-0.31,0.26-0.53,0.59-0.47c0.32,0.06,0.72,0.16,0.67,0.59
		C64.39,48.28,64.09,48.44,63.73,48.37z"/>
	<path class="st1" d="M66.53,45.42c-0.05,0.31-0.27,0.54-0.56,0.51c-0.31-0.03-0.59-0.24-0.56-0.61c0.03-0.31,0.27-0.53,0.56-0.53
		C66.31,44.8,66.49,45.06,66.53,45.42z"/>
	<path class="st1" d="M65.47,43.56c-0.38,0.01-0.65-0.04-0.66-0.37c0-0.44,0.36-0.54,0.69-0.59c0.29-0.04,0.51,0.13,0.49,0.43
		C65.98,43.39,65.71,43.54,65.47,43.56z"/>
	<path class="st1" d="M57.97,31.5c-0.03,0.31-0.17,0.54-0.52,0.56c-0.37,0.02-0.61-0.18-0.63-0.54c-0.01-0.32,0.17-0.54,0.51-0.56
		C57.73,30.92,57.91,31.14,57.97,31.5z"/>
	<path class="st1" d="M56.92,37.2c-0.3-0.08-0.57-0.2-0.55-0.55c0.03-0.35,0.24-0.59,0.61-0.56c0.33,0.02,0.51,0.22,0.47,0.57
		C57.42,36.98,57.25,37.17,56.92,37.2z"/>
	<path class="st1" d="M64.65,27.05c-0.25-0.06-0.53-0.14-0.52-0.45c0.01-0.41,0.32-0.55,0.69-0.59c0.25-0.02,0.45,0.05,0.45,0.35
		C65.28,26.78,65,26.95,64.65,27.05z"/>
	<path class="st1" d="M48.69,9.04c0.01,0.32-0.22,0.47-0.51,0.41c-0.36-0.08-0.77-0.21-0.81-0.64c-0.03-0.39,0.33-0.28,0.58-0.32
		C48.24,8.61,48.68,8.56,48.69,9.04z"/>
	<path class="st1" d="M18.94,10.78c-0.06,0.37-0.35,0.53-0.69,0.61c-0.26,0.06-0.56-0.01-0.55-0.33c0.02-0.38,0.29-0.6,0.67-0.67
		C18.65,10.35,18.86,10.45,18.94,10.78z"/>
	<path class="st1" d="M62.47,26.98c-0.01,0.5-0.24,0.69-0.6,0.67c-0.32-0.02-0.51-0.24-0.5-0.57c0.01-0.38,0.23-0.56,0.61-0.54
		C62.34,26.55,62.49,26.74,62.47,26.98z"/>
	<path class="st1" d="M67.22,30.5c0.33,0.01,0.51,0.18,0.5,0.47c-0.01,0.4-0.26,0.62-0.65,0.62c-0.26,0-0.5-0.11-0.49-0.45
		C66.58,30.7,66.93,30.62,67.22,30.5z"/>
	<path class="st1" d="M9.01,36.19c-0.06,0.32-0.2,0.57-0.55,0.54c-0.4-0.04-0.49-0.34-0.48-0.68c0.01-0.3,0.21-0.5,0.49-0.49
		C8.84,35.56,8.95,35.87,9.01,36.19z"/>
	<path class="st1" d="M31.15,6.03c-0.23,0.27-0.54,0.4-0.92,0.4c-0.26,0-0.45-0.13-0.44-0.41c0.03-0.47,0.39-0.51,0.74-0.52
		C30.84,5.48,31.08,5.63,31.15,6.03z"/>
	<path class="st1" d="M9.7,38.92c-0.42-0.08-0.46-0.46-0.51-0.76c-0.04-0.24,0.12-0.56,0.38-0.57c0.5-0.01,0.51,0.47,0.59,0.8
		C10.22,38.67,9.98,38.83,9.7,38.92z"/>
	<path class="st1" d="M13.21,36.07c-0.04,0.23-0.17,0.42-0.45,0.36c-0.36-0.07-0.64-0.28-0.68-0.66c-0.03-0.31,0.22-0.48,0.49-0.42
		C12.92,35.43,13.19,35.65,13.21,36.07z"/>
	<path class="st1" d="M24.46,7.54c-0.06,0.5-0.43,0.6-0.85,0.63c-0.27,0.02-0.5-0.12-0.43-0.37c0.12-0.4,0.46-0.61,0.78-0.68
		C24.34,7.12,24.49,7.27,24.46,7.54z"/>
	<path class="st1" d="M47.31,10.26c0.02,0.29-0.2,0.49-0.5,0.46c-0.36-0.03-0.67-0.23-0.72-0.61c-0.05-0.33,0.2-0.43,0.52-0.43
		C46.91,9.76,47.29,9.82,47.31,10.26z"/>
	<path class="st1" d="M34.11,60.49c-0.1,0.25-0.18,0.56-0.57,0.59c-0.44,0.03-0.58-0.26-0.65-0.63c-0.08-0.46,0.24-0.44,0.53-0.42
		C33.71,60.04,34.09,59.97,34.11,60.49z"/>
	<path class="st1" d="M11.42,50.67c-0.02,0.4-0.18,0.63-0.52,0.61c-0.37-0.02-0.43-0.36-0.42-0.64c0.01-0.25-0.03-0.65,0.37-0.64
		C11.3,50,11.34,50.4,11.42,50.67z"/>
	<path class="st1" d="M14.16,29.44c0.02,0.35-0.05,0.58-0.4,0.55c-0.43-0.03-0.65-0.36-0.76-0.7c-0.09-0.3,0.25-0.48,0.46-0.46
		C13.82,28.87,14.19,29.02,14.16,29.44z"/>
	<path class="st1" d="M38.22,6.01c-0.04,0.45-0.4,0.47-0.78,0.44c-0.3-0.04-0.66-0.07-0.6-0.5c0.06-0.47,0.48-0.39,0.8-0.4
		C37.94,5.54,38.25,5.66,38.22,6.01z"/>
	<path class="st1" d="M13.75,33.5c0.49,0.13,0.75,0.45,0.9,0.86c0.07,0.19-0.09,0.3-0.3,0.3c-0.5,0-0.77-0.29-0.89-0.74
		C13.4,33.67,13.59,33.57,13.75,33.5z"/>
	<path class="st1" d="M7.98,25.91c-0.02,0.31-0.11,0.59-0.42,0.57C7.15,26.45,7.02,26.1,7,25.74c-0.01-0.25,0.11-0.42,0.42-0.41
		C7.81,25.36,7.96,25.59,7.98,25.91z"/>
	<path class="st1" d="M28.03,6.37c-0.08,0.38-0.4,0.59-0.82,0.6c-0.29,0.04-0.42-0.11-0.38-0.38c0.04-0.43,0.35-0.54,0.72-0.55
		C27.78,6.04,28.09,6.11,28.03,6.37z"/>
	<path class="st1" d="M62.93,50.6c-0.04,0.39-0.33,0.56-0.63,0.6c-0.19,0.02-0.53,0.02-0.55-0.35c-0.03-0.38,0.14-0.59,0.52-0.62
		C62.59,50.21,62.84,50.28,62.93,50.6z"/>
	<path class="st1" d="M63.13,22.31c-0.08,0.36-0.26,0.61-0.62,0.6c-0.27-0.01-0.51-0.17-0.49-0.47c0.01-0.36,0.22-0.54,0.61-0.54
		C62.95,21.89,63.09,22.04,63.13,22.31z"/>
	<path class="st1" d="M53.18,63.67c-0.33-0.01-0.56-0.15-0.53-0.51c0.03-0.32,0.23-0.52,0.55-0.52c0.32,0,0.53,0.18,0.51,0.53
		C53.71,63.52,53.52,63.68,53.18,63.67z"/>
	<path class="st1" d="M6.34,25.87c-0.03,0.26-0.15,0.5-0.46,0.49c-0.35-0.02-0.45-0.34-0.46-0.62c-0.01-0.27,0.15-0.52,0.46-0.5
		C6.24,25.25,6.3,25.55,6.34,25.87z"/>
	<path class="st1" d="M42.01,6.72c-0.07,0.39-0.33,0.5-0.62,0.46c-0.26-0.04-0.6-0.06-0.59-0.46c0.01-0.44,0.36-0.45,0.67-0.47
		C41.81,6.23,41.98,6.43,42.01,6.72z"/>
	<path class="st1" d="M8.36,28.77c-0.37-0.01-0.47-0.27-0.46-0.57c0-0.27,0.12-0.51,0.45-0.5c0.37,0.01,0.46,0.3,0.46,0.58
		C8.81,28.55,8.72,28.8,8.36,28.77z"/>
	<path class="st1" d="M11.83,15.19c0.06-0.3,0.21-0.57,0.53-0.57c0.21,0,0.54,0.04,0.5,0.41c-0.03,0.31-0.2,0.57-0.51,0.58
		C12.14,15.62,11.83,15.54,11.83,15.19z"/>
	<path class="st1" d="M15.84,31.01c-0.11,0.21-0.2,0.5-0.47,0.41c-0.36-0.11-0.65-0.39-0.67-0.79c-0.01-0.19,0.21-0.35,0.44-0.28
		C15.48,30.44,15.72,30.67,15.84,31.01z"/>
	<path class="st1" d="M11.57,34.87c-0.39-0.07-0.55-0.31-0.55-0.67c0-0.21-0.07-0.48,0.33-0.45c0.41,0.04,0.52,0.3,0.57,0.63
		C11.95,34.65,11.85,34.84,11.57,34.87z"/>
	<path class="st1" d="M45.6,7.79c-0.03,0.26-0.16,0.49-0.46,0.48c-0.34-0.01-0.57-0.22-0.6-0.59c-0.02-0.27,0.11-0.43,0.39-0.42
		C45.27,7.27,45.53,7.4,45.6,7.79z"/>
	<path class="st1" d="M66.42,28.26c0.26,0.06,0.52,0.16,0.47,0.49c-0.05,0.31-0.26,0.51-0.58,0.53c-0.27,0.02-0.46-0.12-0.46-0.39
		C65.85,28.54,66.07,28.33,66.42,28.26z"/>
	<path class="st1" d="M52.54,13.53c-0.02,0.28-0.17,0.5-0.48,0.45c-0.33-0.05-0.59-0.26-0.57-0.61c0.02-0.27,0.27-0.4,0.52-0.4
		C52.37,13.02,52.56,13.21,52.54,13.53z"/>
	<path class="st1" d="M5.01,24.48c-0.43-0.12-0.47-0.52-0.54-0.86c-0.05-0.25,0.12-0.37,0.35-0.34c0.41,0.06,0.52,0.39,0.57,0.74
		C5.44,24.28,5.29,24.44,5.01,24.48z"/>
	<path class="st1" d="M54.71,36.29c0.01,0.33-0.19,0.52-0.52,0.56c-0.29-0.04-0.49-0.14-0.51-0.47c-0.02-0.37,0.19-0.53,0.51-0.54
		C54.49,35.82,54.69,36,54.71,36.29z"/>
	<path class="st1" d="M10.22,32.48c0,0.38-0.14,0.59-0.48,0.63c-0.34,0.03-0.46-0.2-0.46-0.47c0-0.28,0.05-0.59,0.43-0.62
		C10.05,31.99,10.21,32.2,10.22,32.48z"/>
	<path class="st1" d="M56.26,24.56c0,0.36-0.2,0.52-0.47,0.54c-0.26,0.02-0.52-0.1-0.54-0.4c-0.03-0.32,0.15-0.53,0.49-0.55
		C56.05,24.14,56.16,24.36,56.26,24.56z"/>
	<path class="st1" d="M7.32,30.87c0.03,0.3-0.08,0.49-0.41,0.5c-0.39,0.01-0.46-0.28-0.48-0.57c-0.03-0.3,0.15-0.52,0.43-0.52
		C7.22,30.26,7.29,30.57,7.32,30.87z"/>
	<path class="st1" d="M59.61,26.83c-0.01,0.38-0.31,0.51-0.57,0.51c-0.28,0-0.55-0.2-0.55-0.53c0-0.36,0.25-0.47,0.57-0.46
		C59.4,26.35,59.59,26.5,59.61,26.83z"/>
	<path class="st1" d="M15.15,48.37c0.31,0.04,0.44,0.26,0.43,0.53c0,0.28-0.16,0.49-0.46,0.51c-0.31,0.02-0.48-0.16-0.48-0.46
		C14.64,48.63,14.84,48.44,15.15,48.37z"/>
	<path class="st1" d="M13.28,53.2c-0.07,0.32-0.23,0.53-0.57,0.51c-0.3-0.02-0.45-0.2-0.44-0.51c0.02-0.31,0.13-0.57,0.49-0.56
		C13.1,52.65,13.21,52.92,13.28,53.2z"/>
	<path class="st1" d="M15.19,13.41c0,0.35-0.18,0.57-0.56,0.59c-0.24,0.01-0.48,0-0.48-0.33c0-0.41,0.26-0.62,0.62-0.68
		C15.07,12.94,15.18,13.13,15.19,13.41z"/>
	<path class="st1" d="M10.89,29.68c0.48-0.07,0.57,0.16,0.59,0.39c0.03,0.32-0.13,0.56-0.47,0.58c-0.26,0.02-0.42-0.2-0.44-0.43
		C10.53,29.89,10.74,29.7,10.89,29.68z"/>
	<path class="st1" d="M55.41,17.87c-0.02,0.3-0.22,0.45-0.54,0.44c-0.28-0.01-0.5-0.07-0.5-0.42c0.01-0.35,0.23-0.5,0.54-0.51
		C55.18,17.37,55.4,17.5,55.41,17.87z"/>
	<path class="st1" d="M49.51,11.83c-0.02,0.28-0.18,0.43-0.48,0.45c-0.28,0.01-0.53-0.05-0.57-0.37c-0.04-0.28,0.08-0.49,0.41-0.5
		C49.17,11.41,49.45,11.44,49.51,11.83z"/>
	<path class="st1" d="M13.6,16.02c0.26-0.02,0.39,0.15,0.4,0.41c0.01,0.35-0.22,0.53-0.53,0.56c-0.24,0.02-0.47-0.09-0.44-0.39
		C13.06,16.28,13.23,16.06,13.6,16.02z"/>
	<path class="st1" d="M54.51,12.99c-0.02,0.28-0.16,0.47-0.47,0.49c-0.29,0.02-0.52-0.06-0.52-0.4c-0.01-0.29,0.06-0.47,0.43-0.48
		C54.28,12.58,54.42,12.7,54.51,12.99z"/>
	<path class="st1" d="M12.98,32.91c-0.05,0.25-0.18,0.37-0.42,0.31c-0.35-0.09-0.49-0.33-0.47-0.7c0.02-0.28,0.15-0.35,0.38-0.29
		C12.81,32.32,12.98,32.57,12.98,32.91z"/>
	<path class="st1" d="M53.52,15.69c-0.01,0.33-0.27,0.47-0.49,0.48c-0.31,0.02-0.54-0.23-0.52-0.55c0.02-0.29,0.28-0.4,0.56-0.42
		C53.4,15.21,53.52,15.39,53.52,15.69z"/>
	<path class="st1" d="M33.65,9.35c0,0.34-0.23,0.48-0.44,0.52c-0.36,0.03-0.55-0.11-0.55-0.36c0-0.32,0.19-0.52,0.54-0.52
		C33.45,8.99,33.65,9.06,33.65,9.35z"/>
	<path class="st1" d="M43.76,8.8c-0.03,0.37-0.27,0.4-0.55,0.39c-0.34-0.01-0.55-0.17-0.54-0.52c0.01-0.31,0.23-0.36,0.49-0.34
		C43.46,8.36,43.71,8.45,43.76,8.8z"/>
	<path class="st1" d="M52.99,17.68c-0.08,0.28-0.2,0.5-0.52,0.49c-0.24,0-0.49-0.06-0.47-0.35c0.02-0.26,0.18-0.49,0.49-0.49
		C52.73,17.32,52.92,17.44,52.99,17.68z"/>
	<path class="st1" d="M7.95,38.92c-0.01,0.31-0.12,0.55-0.43,0.55c-0.25,0-0.4-0.18-0.41-0.45c-0.01-0.29,0.08-0.55,0.37-0.58
		C7.79,38.41,7.89,38.68,7.95,38.92z"/>
	<path class="st1" d="M58.68,25.53c-0.45,0.03-0.65-0.14-0.67-0.41c-0.02-0.31,0.18-0.54,0.51-0.53c0.27,0.01,0.49,0.17,0.48,0.47
		C59,25.35,58.83,25.51,58.68,25.53z"/>
	<path class="st1" d="M59.77,20.16c-0.04,0.31-0.18,0.51-0.49,0.48c-0.24-0.02-0.44-0.15-0.43-0.43c0.01-0.32,0.23-0.45,0.5-0.46
		C59.61,19.73,59.75,19.91,59.77,20.16z"/>
	<path class="st1" d="M54.58,52.59c-0.04,0.51-0.22,0.68-0.49,0.7c-0.25,0.02-0.43-0.13-0.45-0.39c-0.02-0.31,0.18-0.47,0.47-0.45
		C54.31,52.47,54.6,52.45,54.58,52.59z"/>
	<path class="st1" d="M64.22,24.59c-0.06,0.29-0.24,0.42-0.53,0.42c-0.27,0-0.44-0.14-0.42-0.4c0.03-0.31,0.22-0.49,0.56-0.48
		C64.12,24.15,64.18,24.36,64.22,24.59z"/>
	<path class="st1" d="M37.89,8.7c-0.02,0.28-0.13,0.45-0.41,0.48c-0.3,0.03-0.42-0.18-0.44-0.42c-0.01-0.24,0.14-0.43,0.41-0.45
		C37.74,8.29,37.86,8.46,37.89,8.7z"/>
	<path class="st1" d="M28.65,8.28c0.01,0.31-0.14,0.44-0.4,0.44c-0.26,0-0.44-0.14-0.45-0.4c0-0.23,0.18-0.32,0.39-0.36
		C28.47,7.91,28.61,8.04,28.65,8.28z"/>
	<path class="st1" d="M14.65,32.59c-0.02,0.23-0.16,0.33-0.35,0.3c-0.28-0.04-0.47-0.2-0.51-0.5c-0.02-0.2,0.07-0.34,0.28-0.34
		C14.42,32.06,14.52,32.35,14.65,32.59z"/>
	<path class="st1" d="M45.92,65.54c-0.1,0.24-0.32,0.3-0.54,0.29c-0.19-0.01-0.28-0.18-0.24-0.36c0.05-0.24,0.25-0.27,0.46-0.25
		C45.79,65.24,45.9,65.34,45.92,65.54z"/>
	<path class="st1" d="M54.12,22.41c-0.06,0.24-0.19,0.37-0.42,0.37c-0.23-0.01-0.37-0.12-0.35-0.37c0.02-0.25,0.21-0.34,0.4-0.37
		C54.01,22.01,54.05,22.24,54.12,22.41z"/>
	<path class="st1" d="M61.24,29.01c0.02,0.27-0.13,0.39-0.34,0.43c-0.26,0.04-0.33-0.15-0.34-0.37c-0.01-0.21,0.03-0.43,0.29-0.42
		C61.07,28.65,61.19,28.82,61.24,29.01z"/>
	<path class="st1" d="M22.43,60.34c-0.3,0.14-0.49,0.1-0.57-0.03c-0.05-0.08,0.1-0.17,0.23-0.1C22.17,60.25,22.25,60.27,22.43,60.34
		z"/>
	<path class="st1" d="M59.81,43.41c0.17-0.02,0.25,0.07,0.26,0.18c0,0.06-0.08,0.16-0.14,0.17c-0.12,0.03-0.23-0.05-0.23-0.18
		C59.69,43.53,59.78,43.46,59.81,43.41z"/>
</g>
</svg>
